<?xml version="1.0" encoding="UTF-8"?> <svg xmlns="http://www.w3.org/2000/svg" id="_Слой_1" data-name="Слой 1" viewBox="0 0 134.59 122.42"><g><path d="M1.06,0c.67.03,1.55.06,2.64.1,1.09.03,2.16.05,3.22.05,1.5,0,2.94-.02,4.32-.05,1.38-.03,2.35-.05,2.93-.05,3.87,0,6.77.88,8.69,2.64s2.88,4.03,2.88,6.82c0,1.15-.19,2.36-.58,3.62-.38,1.26-1.05,2.43-1.99,3.5-.94,1.07-2.23,1.94-3.86,2.62-1.63.67-3.7,1.01-6.19,1.01h-4.61v-.96h4.13c2.27,0,4.01-.43,5.21-1.3s2.02-2,2.45-3.41c.43-1.41.65-2.93.65-4.56,0-3.04-.6-5.31-1.8-6.82-1.2-1.5-3.26-2.26-6.17-2.26-1.47,0-2.43.27-2.88.82-.45.54-.67,1.65-.67,3.31v23.81c0,1.15.12,2.02.36,2.59.24.58.71.96,1.42,1.15.7.19,1.73.32,3.07.38v.96c-.83-.06-1.89-.1-3.17-.12-1.28-.02-2.58-.02-3.89-.02s-2.42,0-3.5.02-1.97.06-2.64.12v-.96c1.09-.06,1.91-.19,2.47-.38.56-.19.94-.58,1.13-1.15.19-.58.29-1.44.29-2.59V5.09c0-1.18-.1-2.06-.29-2.62-.19-.56-.57-.94-1.13-1.15-.56-.21-1.38-.33-2.47-.36v-.96Z"></path><path d="M40.37,8.59c2.82,0,5.02.86,6.6,2.57,1.58,1.71,2.38,4.38,2.38,7.99h-16.94l-.05-.91h12.38c.06-1.57-.06-3.02-.38-4.34-.32-1.33-.82-2.39-1.51-3.19-.69-.8-1.58-1.2-2.66-1.2-1.47,0-2.78.74-3.91,2.21-1.14,1.47-1.82,3.81-2.04,7.01l.14.19c-.06.48-.11,1.01-.14,1.58-.03.58-.05,1.15-.05,1.73,0,2.18.35,4.05,1.06,5.62.7,1.57,1.62,2.76,2.76,3.58s2.31,1.22,3.53,1.22c1.44,0,2.77-.35,3.98-1.06,1.22-.7,2.24-1.95,3.07-3.74l.96.38c-.35,1.06-.93,2.08-1.73,3.07-.8.99-1.81,1.8-3.02,2.42-1.22.62-2.62.94-4.22.94-2.3,0-4.28-.53-5.93-1.58-1.65-1.05-2.91-2.52-3.79-4.39-.88-1.87-1.32-4.02-1.32-6.46,0-2.82.45-5.24,1.34-7.27.9-2.03,2.16-3.6,3.79-4.7s3.54-1.66,5.71-1.66Z"></path><path d="M64.85,9.31v1.01c-1.15,0-1.97.24-2.45.72-.48.48-.72,1.39-.72,2.74v15.74c0,1.34.24,2.26.72,2.74.48.48,1.3.72,2.45.72v1.01c-.51-.03-1.27-.07-2.28-.12-1.01-.05-2.04-.07-3.1-.07s-2.14.02-3.26.07c-1.12.05-1.95.09-2.5.12v-1.01c1.31,0,2.25-.24,2.81-.72.56-.48.84-1.39.84-2.74v-15.74c0-1.34-.28-2.26-.84-2.74-.56-.48-1.5-.72-2.81-.72v-1.01c.54.03,1.38.07,2.5.12,1.12.05,2.21.07,3.26.07s2.09-.02,3.1-.07c1.01-.05,1.77-.09,2.28-.12ZM73.63,20.78v.96h-13.54v-.96h13.54ZM80.26,9.31v1.01c-1.31,0-2.25.24-2.81.72-.56.48-.84,1.39-.84,2.74v15.74c0,1.34.28,2.26.84,2.74.56.48,1.5.72,2.81.72v1.01c-.54-.03-1.38-.07-2.5-.12-1.12-.05-2.21-.07-3.26-.07s-2.09.02-3.1.07c-1.01.05-1.77.09-2.28.12v-1.01c1.15,0,1.97-.24,2.45-.72.48-.48.72-1.39.72-2.74v-15.74c0-1.34-.24-2.26-.72-2.74-.48-.48-1.3-.72-2.45-.72v-1.01c.51.03,1.27.07,2.28.12,1.01.05,2.04.07,3.1.07s2.14-.02,3.26-.07c1.12-.05,1.95-.09,2.5-.12Z"></path><path d="M90.19,34.32c-2.08,0-3.59-.52-4.54-1.56-.94-1.04-1.42-2.42-1.42-4.15,0-1.34.33-2.46.98-3.34.66-.88,1.5-1.6,2.52-2.16,1.02-.56,2.1-1.04,3.24-1.44,1.14-.4,2.21-.79,3.24-1.18,1.02-.38,1.86-.82,2.52-1.3.66-.48.98-1.09.98-1.82v-2.98c0-1.34-.2-2.37-.6-3.07s-.94-1.18-1.61-1.42c-.67-.24-1.42-.36-2.26-.36s-1.66.11-2.57.34c-.91.22-1.64.69-2.18,1.39.61.13,1.14.45,1.58.96.45.51.67,1.17.67,1.97s-.26,1.43-.77,1.9-1.17.7-1.97.7c-.93,0-1.61-.29-2.04-.89-.43-.59-.65-1.26-.65-1.99,0-.83.21-1.5.62-2.02.42-.51.94-.99,1.58-1.44.74-.51,1.69-.95,2.86-1.32,1.17-.37,2.49-.55,3.96-.55,1.31,0,2.43.15,3.36.46.93.3,1.7.74,2.3,1.32.83.77,1.38,1.7,1.63,2.81.26,1.1.38,2.42.38,3.96v13.34c0,.77.11,1.34.34,1.71.22.37.61.55,1.15.55.45,0,.84-.1,1.18-.29s.66-.43.98-.72l.53.82c-.67.51-1.31.94-1.92,1.27-.61.34-1.42.5-2.45.5-1.66,0-2.77-.43-3.31-1.29-.54-.87-.82-1.86-.82-2.98-1.02,1.7-2.18,2.83-3.48,3.41s-2.65.86-4.06.86ZM92.3,32.4c.96,0,1.9-.28,2.83-.84.93-.56,1.79-1.5,2.59-2.81v-9.41c-.48.7-1.22,1.26-2.23,1.68s-2.05.87-3.12,1.37-1.99,1.17-2.76,2.02c-.77.85-1.15,2.06-1.15,3.62,0,1.47.37,2.57,1.1,3.29.74.72,1.65,1.08,2.74,1.08Z"></path><path d="M132.05,9.31c-.13,1.12-.22,2.19-.26,3.22-.05,1.02-.07,1.81-.07,2.35,0,.58.02,1.13.05,1.66.03.53.06.97.1,1.32h-1.1c-.16-2.21-.5-3.86-1.01-4.94s-1.22-1.8-2.11-2.14-2-.5-3.31-.5h-1.87v18.77c0,1.57.46,2.62,1.37,3.14.91.53,2.15.79,3.72.79v1.01c-.74-.03-1.75-.07-3.05-.12-1.3-.05-2.7-.07-4.2-.07s-2.86.02-4.18.07c-1.31.05-2.34.09-3.07.12v-1.01c1.6,0,2.85-.26,3.74-.79.9-.53,1.34-1.58,1.34-3.14V10.27h-2.35c-1.31,0-2.38.18-3.19.53-.82.35-1.44,1.07-1.87,2.16-.43,1.09-.73,2.74-.89,4.94h-1.1c.06-.35.1-.79.12-1.32.02-.53.02-1.08.02-1.66,0-.54-.02-1.33-.07-2.35-.05-1.02-.14-2.09-.26-3.21h4.61c1.09,0,2.25.02,3.48.05,1.23.03,2.44.05,3.62.05s2.45-.02,3.7-.07c1.25-.05,2.42-.07,3.5-.07h4.61Z"></path></g><g><path d="M48.76,65.09l1.64-2.4,2.64-.16-4.39,6.91c-.99,1.56-1.48,2.6-1.48,3.12,0,.42.2.62.61.62.68,0,2.12-1.13,4.32-3.4,1.09-1.12,1.71-1.73,1.84-1.84.16,0,.23.05.23.16,0,.25-.61,1-1.84,2.25-2.28,2.32-3.95,3.48-5,3.48s-1.64-.66-1.64-1.99c0-.33.06-.83.2-1.52-1.85,2.34-3.53,3.52-5.04,3.52s-2.3-1.36-2.3-4.08c0-.59.08-1.2.25-1.86-.33.52-.6.78-.82.78-.16,0-.23-.05-.23-.16,0-.23.62-.98,1.88-2.25,2.6-2.62,5.01-3.93,7.21-3.93,1.41,0,2.11.62,2.11,1.86,0,.25-.05.54-.16.88ZM40.2,71.89c0,.82.32,1.23.96,1.23.95,0,2.19-.84,3.71-2.52,2.27-2.5,3.4-4.63,3.4-6.39,0-.83-.44-1.25-1.31-1.25-1.47,0-2.99,1.13-4.55,3.4-1.47,2.12-2.21,3.96-2.21,5.53Z"></path><path d="M54.96,73.68l5.2-7.79s.1-.14.25-.37c.68-.99,1.02-1.67,1.02-2.03s-.18-.53-.55-.53c-.74,0-2.3,1.26-4.68,3.78-.33.35-.66.72-.99,1.11-.46.56-.76.84-.9.84-.13,0-.2-.05-.2-.16,0-.22.31-.66.92-1.33l1.27-1.39c2.14-2.33,3.71-3.5,4.73-3.5s1.56.63,1.56,1.89c0,1.16-.53,2.6-1.6,4.32,3.65-4.14,6.07-6.21,7.29-6.21,1,0,1.5.65,1.5,1.94,0,.95-.66,2.35-1.97,4.21-.08.12-.24.35-.49.68-1.24,1.71-1.86,2.83-1.86,3.37,0,.48.21.72.64.72.65,0,2.09-1.13,4.32-3.41l1.84-1.87c.17,0,.25.07.25.2,0,.23-.58.93-1.74,2.09l-.23.23c-2.24,2.24-3.73,3.36-4.47,3.36-1.28,0-1.91-.95-1.91-2.84,0-1.14.85-2.78,2.56-4.94.1-.13.31-.38.61-.74.77-.94,1.15-1.58,1.15-1.9,0-.3-.15-.45-.45-.45-1.37,0-4.79,3.48-10.27,10.45l-2.79.27Z"></path><path d="M83.44,65.09l8.88-15.77,2.59-.12-10.92,18.94c-1.31,2.3-1.97,3.77-1.97,4.41,0,.37.21.55.64.55.6,0,2.05-1.19,4.36-3.58.25-.25.52-.55.82-.91.39-.45.64-.67.74-.67.16,0,.23.05.23.16,0,.25-.61,1-1.84,2.25-2.28,2.32-3.95,3.48-5,3.48s-1.64-.66-1.64-1.99c0-.33.06-.83.2-1.52-1.85,2.34-3.53,3.52-5.04,3.52s-2.3-1.36-2.3-4.08c0-.59.08-1.2.25-1.86-.33.52-.6.78-.82.78-.16,0-.23-.05-.23-.16,0-.23.62-.98,1.88-2.25,2.6-2.62,5.01-3.93,7.21-3.93,1.41,0,2.11.62,2.11,1.86,0,.25-.05.54-.15.88ZM74.88,71.89c0,.82.32,1.23.96,1.23.95,0,2.19-.84,3.71-2.52,2.27-2.5,3.4-4.63,3.4-6.39,0-.83-.44-1.25-1.31-1.25-1.47,0-2.99,1.13-4.55,3.4-1.47,2.12-2.21,3.96-2.21,5.53Z"></path></g><g><path d="M23.95,87.77c-.13,1.12-.22,2.21-.26,3.26-.05,1.06-.07,1.86-.07,2.4,0,.58.02,1.13.05,1.66.03.53.06.97.1,1.32h-1.1c-.19-1.89-.46-3.38-.82-4.49-.35-1.1-.95-1.89-1.8-2.35-.85-.46-2.12-.7-3.82-.7h-3.98c-1.09,0-1.91.09-2.47.26-.56.18-.94.54-1.13,1.1-.19.56-.29,1.43-.29,2.62v23.81c0,1.15.1,2.02.29,2.59.19.58.57.95,1.13,1.13.56.18,1.38.26,2.47.26h3.5c2.02,0,3.54-.27,4.58-.82,1.04-.54,1.79-1.43,2.26-2.66.46-1.23.81-2.9,1.03-5.02h1.1c-.1.86-.14,2.02-.14,3.46,0,.61.02,1.48.07,2.62s.14,2.31.26,3.53c-1.63-.06-3.47-.1-5.52-.12-2.05-.02-3.87-.02-5.47-.02h-3.82c-1.58,0-3.27,0-5.06.02-1.79.02-3.47.06-5.04.12v-.96c1.09-.06,1.91-.19,2.47-.38.56-.19.94-.58,1.13-1.15.19-.58.29-1.44.29-2.59v-23.81c0-1.18-.1-2.06-.29-2.62-.19-.56-.57-.94-1.13-1.15-.56-.21-1.38-.33-2.47-.36v-.96c1.57.03,3.25.06,5.04.1,1.79.03,3.48.05,5.06.05h3.82c1.47,0,3.14,0,5.02-.02,1.87-.02,3.54-.06,5.02-.12ZM15.7,104.18v.96H6.91v-.96h8.78ZM17.09,97.85c-.13,1.82-.18,3.22-.17,4.18.02.96.02,1.84.02,2.64s.02,1.68.05,2.64c.03.96.11,2.35.24,4.18h-1.1c-.13-1.02-.28-2.02-.46-3-.18-.98-.56-1.78-1.15-2.4-.59-.62-1.59-.94-3-.94v-.96c1.41,0,2.39-.37,2.95-1.1.56-.74.92-1.6,1.08-2.59.16-.99.3-1.87.43-2.64h1.1Z"></path><path d="M53.57,97.08v1.01c-1.31,0-2.25.24-2.81.72-.56.48-.84,1.39-.84,2.74v15.74c0,1.34.28,2.26.84,2.74.56.48,1.5.72,2.81.72v1.01c-.54-.03-1.34-.07-2.4-.12s-2.21-.07-3.46-.07-2.51.02-3.77.07-2.25.09-2.95.12v-1.01c1.44,0,2.57-.23,3.38-.7.81-.46,1.22-1.38,1.22-2.76v-15.74c0-1.34-.24-2.26-.72-2.74-.48-.48-1.3-.72-2.45-.72h-.43c-.8,0-1.33.24-1.58.72-.26.48-.45,1.39-.58,2.74-.26,2.98-.57,5.82-.94,8.52-.37,2.7-.98,5.14-1.85,7.32-.48,1.18-1.14,2.32-1.99,3.41-.85,1.09-1.99,1.63-3.43,1.63-.58,0-1.12-.1-1.63-.31-.51-.21-.93-.53-1.25-.96-.32-.43-.48-.97-.48-1.61,0-.8.24-1.42.72-1.87.48-.45,1.1-.67,1.87-.67.67,0,1.24.19,1.7.58.46.38.7.96.7,1.73,0,.51-.14.97-.43,1.37-.29.4-.75.73-1.39.98.06.03.15.05.26.05h.22c.8,0,1.48-.26,2.04-.79.56-.53,1.04-1.15,1.44-1.87.4-.72.7-1.35.89-1.9.51-1.34.95-2.85,1.3-4.51.35-1.66.64-3.44.86-5.33.22-1.89.4-3.81.53-5.76.1-1.34-.19-2.26-.84-2.74-.66-.48-1.64-.72-2.95-.72v-1.01c.26.03.66.07,1.22.12.56.05,1.24.07,2.04.07h9.31c1.12,0,2.23-.02,3.34-.07s1.93-.09,2.47-.12Z"></path><path d="M68.73,96.36c2.82,0,5.02.86,6.6,2.57,1.58,1.71,2.38,4.38,2.38,7.99h-16.94l-.05-.91h12.38c.06-1.57-.06-3.02-.38-4.34-.32-1.33-.82-2.39-1.51-3.19-.69-.8-1.58-1.2-2.66-1.2-1.47,0-2.78.74-3.91,2.21-1.14,1.47-1.82,3.81-2.04,7.01l.14.19c-.06.48-.11,1.01-.14,1.58-.03.58-.05,1.15-.05,1.73,0,2.18.35,4.05,1.06,5.62.7,1.57,1.62,2.76,2.76,3.58,1.14.82,2.31,1.22,3.53,1.22,1.44,0,2.77-.35,3.98-1.06,1.22-.7,2.24-1.95,3.07-3.74l.96.38c-.35,1.06-.93,2.08-1.73,3.07-.8.99-1.81,1.8-3.02,2.42s-2.62.94-4.22.94c-2.3,0-4.28-.53-5.93-1.58-1.65-1.06-2.91-2.52-3.79-4.39-.88-1.87-1.32-4.02-1.32-6.46,0-2.82.45-5.24,1.34-7.27.9-2.03,2.16-3.6,3.79-4.7,1.63-1.1,3.54-1.66,5.71-1.66Z"></path><path d="M93.22,97.08v1.01c-1.15,0-1.97.24-2.45.72-.48.48-.72,1.39-.72,2.74v15.74c0,1.34.24,2.26.72,2.74s1.3.72,2.45.72v1.01c-.51-.03-1.27-.07-2.28-.12s-2.04-.07-3.1-.07-2.14.02-3.26.07-1.95.09-2.5.12v-1.01c1.31,0,2.25-.24,2.81-.72.56-.48.84-1.39.84-2.74v-15.74c0-1.34-.28-2.26-.84-2.74-.56-.48-1.5-.72-2.81-.72v-1.01c.54.03,1.38.07,2.5.12s2.21.07,3.26.07,2.09-.02,3.1-.07,1.77-.09,2.28-.12ZM102,108.55v.96h-13.54v-.96h13.54ZM108.62,97.08v1.01c-1.31,0-2.25.24-2.81.72-.56.48-.84,1.39-.84,2.74v15.74c0,1.34.28,2.26.84,2.74.56.48,1.5.72,2.81.72v1.01c-.54-.03-1.38-.07-2.5-.12-1.12-.05-2.21-.07-3.26-.07s-2.09.02-3.1.07-1.77.09-2.28.12v-1.01c1.15,0,1.97-.24,2.45-.72.48-.48.72-1.39.72-2.74v-15.74c0-1.34-.24-2.26-.72-2.74s-1.3-.72-2.45-.72v-1.01c.51.03,1.27.07,2.28.12s2.04.07,3.1.07,2.14-.02,3.26-.07c1.12-.05,1.95-.09,2.5-.12Z"></path><path d="M118.56,122.08c-2.08,0-3.59-.52-4.54-1.56-.94-1.04-1.42-2.42-1.42-4.15,0-1.34.33-2.46.98-3.34.66-.88,1.5-1.6,2.52-2.16,1.02-.56,2.1-1.04,3.24-1.44,1.14-.4,2.21-.79,3.24-1.18,1.02-.38,1.86-.82,2.52-1.3.66-.48.98-1.09.98-1.82v-2.98c0-1.34-.2-2.37-.6-3.07s-.94-1.18-1.61-1.42c-.67-.24-1.42-.36-2.26-.36s-1.66.11-2.57.34c-.91.22-1.64.69-2.18,1.39.61.13,1.14.45,1.58.96.45.51.67,1.17.67,1.97s-.26,1.43-.77,1.9c-.51.46-1.17.7-1.97.7-.93,0-1.61-.3-2.04-.89s-.65-1.26-.65-1.99c0-.83.21-1.5.62-2.02.42-.51.94-.99,1.58-1.44.74-.51,1.69-.95,2.86-1.32,1.17-.37,2.49-.55,3.96-.55,1.31,0,2.43.15,3.36.46.93.3,1.7.74,2.3,1.32.83.77,1.38,1.7,1.63,2.81.26,1.1.38,2.42.38,3.96v13.34c0,.77.11,1.34.34,1.7.22.37.61.55,1.15.55.45,0,.84-.1,1.18-.29.34-.19.66-.43.98-.72l.53.82c-.67.51-1.31.94-1.92,1.27-.61.34-1.42.5-2.45.5-1.66,0-2.77-.43-3.31-1.3s-.82-1.86-.82-2.98c-1.02,1.7-2.18,2.83-3.48,3.41-1.3.58-2.65.86-4.06.86ZM120.67,120.17c.96,0,1.9-.28,2.83-.84.93-.56,1.79-1.5,2.59-2.81v-9.41c-.48.7-1.22,1.26-2.23,1.68-1.01.42-2.05.87-3.12,1.37s-1.99,1.17-2.76,2.02c-.77.85-1.15,2.06-1.15,3.62,0,1.47.37,2.57,1.1,3.29.74.72,1.65,1.08,2.74,1.08Z"></path></g></svg> 