<?xml version="1.0" encoding="UTF-8"?> <svg xmlns="http://www.w3.org/2000/svg" id="_Слой_1" data-name="Слой 1" viewBox="0 0 252.12 25.43"><defs><style> .cls-1 { fill: #fff; } </style></defs><g><path class="cls-1" d="M0,0c.49.02,1.14.05,1.94.07.8.02,1.58.04,2.36.04,1.1,0,2.16-.01,3.17-.04,1.01-.02,1.73-.04,2.15-.04,2.84,0,4.97.65,6.38,1.94,1.41,1.29,2.11,2.96,2.11,5,0,.85-.14,1.73-.42,2.66-.28.93-.77,1.78-1.46,2.57-.69.79-1.64,1.43-2.83,1.92-1.2.49-2.71.74-4.54.74h-3.38v-.7h3.03c1.67,0,2.94-.32,3.82-.95.88-.63,1.48-1.47,1.8-2.5.32-1.03.48-2.15.48-3.35,0-2.23-.44-3.9-1.32-5s-2.39-1.66-4.53-1.66c-1.08,0-1.79.2-2.11.6-.33.4-.49,1.21-.49,2.43v17.47c0,.85.09,1.48.26,1.9.18.42.52.7,1.04.85s1.27.23,2.25.28v.7c-.61-.05-1.39-.08-2.33-.09s-1.89-.02-2.85-.02-1.77,0-2.57.02c-.8.01-1.44.04-1.94.09v-.7c.8-.05,1.4-.14,1.81-.28.41-.14.69-.42.83-.85.14-.42.21-1.06.21-1.9V3.73c0-.87-.07-1.51-.21-1.92-.14-.41-.42-.69-.83-.85-.41-.15-1.02-.24-1.81-.26v-.7Z"></path><path class="cls-1" d="M28.85,6.31c2.07,0,3.68.63,4.84,1.88,1.16,1.26,1.74,3.21,1.74,5.87h-12.44l-.04-.67h9.09c.05-1.15-.05-2.21-.28-3.19-.24-.97-.61-1.76-1.11-2.34-.5-.59-1.16-.88-1.96-.88-1.08,0-2.04.54-2.87,1.62-.83,1.08-1.33,2.8-1.5,5.14l.11.14c-.05.35-.08.74-.11,1.16s-.04.85-.04,1.27c0,1.6.26,2.97.78,4.12.52,1.15,1.19,2.03,2.03,2.62.83.6,1.7.9,2.59.9,1.06,0,2.03-.26,2.92-.77s1.64-1.43,2.25-2.75l.71.28c-.26.77-.68,1.53-1.27,2.25-.59.73-1.33,1.32-2.22,1.78s-1.93.69-3.1.69c-1.69,0-3.14-.39-4.35-1.16-1.21-.77-2.14-1.85-2.78-3.22-.65-1.37-.97-2.95-.97-4.74,0-2.07.33-3.85.99-5.34.66-1.49,1.58-2.64,2.78-3.45,1.2-.81,2.59-1.22,4.19-1.22Z"></path><path class="cls-1" d="M46.82,6.83v.74c-.85,0-1.44.18-1.8.53-.35.35-.53,1.02-.53,2.01v11.55c0,.99.18,1.66.53,2.01.35.35.95.53,1.8.53v.74c-.38-.02-.93-.05-1.67-.09-.74-.04-1.5-.05-2.27-.05s-1.57.02-2.4.05c-.82.04-1.43.06-1.83.09v-.74c.96,0,1.65-.18,2.06-.53.41-.35.62-1.02.62-2.01v-11.55c0-.99-.21-1.66-.62-2.01-.41-.35-1.1-.53-2.06-.53v-.74c.4.02,1.01.05,1.83.09.82.04,1.62.05,2.4.05s1.53-.02,2.27-.05c.74-.04,1.3-.06,1.67-.09ZM53.26,15.25v.7h-9.93v-.7h9.93ZM58.12,6.83v.74c-.96,0-1.65.18-2.06.53-.41.35-.62,1.02-.62,2.01v11.55c0,.99.21,1.66.62,2.01.41.35,1.1.53,2.06.53v.74c-.4-.02-1.01-.05-1.83-.09-.82-.04-1.62-.05-2.4-.05s-1.53.02-2.27.05c-.74.04-1.3.06-1.67.09v-.74c.85,0,1.44-.18,1.8-.53.35-.35.53-1.02.53-2.01v-11.55c0-.99-.18-1.66-.53-2.01-.35-.35-.95-.53-1.8-.53v-.74c.38.02.93.05,1.67.09.74.04,1.5.05,2.27.05s1.57-.02,2.4-.05c.82-.04,1.43-.06,1.83-.09Z"></path><path class="cls-1" d="M65.42,25.19c-1.53,0-2.64-.38-3.33-1.15-.69-.76-1.04-1.78-1.04-3.05,0-.99.24-1.8.72-2.45.48-.65,1.1-1.17,1.85-1.59.75-.41,1.54-.76,2.38-1.06.83-.29,1.63-.58,2.38-.86s1.37-.6,1.85-.95c.48-.35.72-.8.72-1.34v-2.18c0-.99-.15-1.74-.44-2.25-.29-.52-.69-.86-1.18-1.04s-1.04-.26-1.66-.26-1.22.08-1.88.25c-.67.16-1.2.51-1.6,1.02.45.09.83.33,1.16.7.33.38.49.86.49,1.44s-.19,1.05-.56,1.39c-.38.34-.86.51-1.44.51-.68,0-1.18-.22-1.5-.65-.32-.43-.48-.92-.48-1.46,0-.61.15-1.1.46-1.48.3-.38.69-.73,1.16-1.06.54-.38,1.24-.7,2.1-.97s1.83-.41,2.91-.41c.96,0,1.79.11,2.47.33.68.22,1.24.55,1.69.97.61.56,1.01,1.25,1.2,2.06.19.81.28,1.78.28,2.91v9.79c0,.56.08.98.25,1.25.16.27.45.4.84.4.33,0,.62-.07.86-.21.25-.14.49-.32.72-.53l.39.6c-.49.38-.96.69-1.41.93-.45.25-1.05.37-1.8.37-1.22,0-2.03-.32-2.43-.95-.4-.63-.6-1.36-.6-2.18-.75,1.25-1.6,2.08-2.55,2.5-.95.42-1.94.63-2.98.63ZM66.97,23.78c.71,0,1.4-.21,2.08-.62.68-.41,1.31-1.1,1.9-2.06v-6.9c-.35.52-.9.93-1.64,1.23-.74.31-1.5.64-2.29,1-.79.36-1.46.86-2.03,1.48-.56.62-.84,1.51-.84,2.66,0,1.08.27,1.88.81,2.41s1.21.79,2.01.79Z"></path><path class="cls-1" d="M96.13,6.83c-.09.82-.16,1.61-.19,2.36-.04.75-.05,1.33-.05,1.73,0,.42.01.83.04,1.22s.05.71.07.97h-.81c-.12-1.62-.36-2.83-.74-3.63-.38-.8-.89-1.32-1.55-1.57-.66-.25-1.47-.37-2.43-.37h-1.37v13.77c0,1.15.33,1.92,1,2.31.67.39,1.58.58,2.73.58v.74c-.54-.02-1.29-.05-2.24-.09-.95-.04-1.98-.05-3.08-.05s-2.1.02-3.06.05c-.96.04-1.71.06-2.25.09v-.74c1.17,0,2.09-.19,2.75-.58.66-.39.99-1.16.99-2.31V7.54h-1.73c-.96,0-1.74.13-2.34.39s-1.06.79-1.37,1.58c-.32.8-.53,2.01-.65,3.63h-.81c.05-.26.08-.58.09-.97.01-.39.02-.79.02-1.22,0-.4-.02-.97-.05-1.73-.04-.75-.1-1.54-.19-2.36h3.38c.8,0,1.65.01,2.55.04.9.02,1.79.04,2.66.04s1.8-.02,2.71-.05c.92-.04,1.77-.05,2.57-.05h3.38Z"></path></g><g><path class="cls-1" d="M112.07,17.46l1.2-1.76,1.94-.11-3.23,5.07c-.73,1.15-1.09,1.91-1.09,2.29,0,.31.15.46.44.46.5,0,1.55-.83,3.17-2.49.8-.82,1.25-1.27,1.35-1.35.11,0,.17.04.17.11,0,.18-.45.73-1.35,1.65-1.67,1.7-2.9,2.55-3.67,2.55s-1.2-.49-1.2-1.46c0-.24.05-.61.14-1.12-1.36,1.72-2.59,2.58-3.7,2.58s-1.69-1-1.69-3c0-.43.06-.88.19-1.36-.24.38-.44.57-.6.57-.11,0-.17-.04-.17-.11,0-.17.46-.72,1.38-1.65,1.91-1.92,3.67-2.88,5.29-2.88,1.03,0,1.55.45,1.55,1.36,0,.18-.04.4-.11.65ZM105.79,22.45c0,.6.23.9.7.9.7,0,1.61-.62,2.72-1.85,1.66-1.83,2.49-3.4,2.49-4.69,0-.61-.32-.92-.96-.92-1.08,0-2.19.83-3.34,2.49-1.08,1.56-1.62,2.91-1.62,4.06Z"></path><path class="cls-1" d="M116.62,23.77l3.81-5.72s.07-.1.19-.27c.5-.73.75-1.22.75-1.49s-.13-.39-.4-.39c-.54,0-1.69.92-3.43,2.77-.24.26-.48.53-.72.81-.33.41-.55.62-.66.62-.1,0-.14-.04-.14-.11,0-.16.22-.49.67-.98l.93-1.02c1.57-1.71,2.72-2.57,3.47-2.57s1.15.46,1.15,1.39c0,.85-.39,1.91-1.18,3.17,2.68-3.04,4.46-4.56,5.35-4.56.74,0,1.1.47,1.1,1.42,0,.7-.48,1.73-1.45,3.09-.06.09-.18.25-.36.5-.91,1.25-1.36,2.08-1.36,2.47,0,.35.16.53.47.53.48,0,1.53-.83,3.17-2.5l1.35-1.37c.12,0,.19.05.19.14,0,.17-.43.68-1.28,1.53l-.17.17c-1.64,1.64-2.74,2.47-3.28,2.47-.94,0-1.4-.7-1.4-2.09,0-.83.63-2.04,1.88-3.63.08-.1.22-.28.44-.55.56-.69.85-1.16.85-1.4,0-.22-.11-.33-.33-.33-1,0-3.52,2.56-7.54,7.67l-2.05.2Z"></path><path class="cls-1" d="M137.52,17.47l6.52-11.57,1.9-.09-8.01,13.9c-.96,1.69-1.45,2.77-1.45,3.24,0,.27.16.4.47.4.44,0,1.5-.88,3.2-2.63.18-.18.38-.4.6-.66.29-.33.47-.49.54-.49.11,0,.17.04.17.11,0,.18-.45.73-1.35,1.65-1.67,1.7-2.9,2.55-3.67,2.55s-1.2-.49-1.2-1.46c0-.24.05-.61.14-1.12-1.36,1.72-2.59,2.58-3.7,2.58s-1.69-1-1.69-3c0-.43.06-.88.19-1.36-.24.38-.44.57-.6.57-.11,0-.17-.04-.17-.11,0-.17.46-.72,1.38-1.65,1.91-1.92,3.67-2.88,5.29-2.88,1.03,0,1.55.45,1.55,1.36,0,.18-.04.4-.11.65ZM131.24,22.45c0,.6.23.9.7.9.7,0,1.61-.62,2.72-1.85,1.66-1.83,2.49-3.4,2.49-4.69,0-.61-.32-.92-.96-.92-1.08,0-2.19.83-3.34,2.49-1.08,1.56-1.62,2.91-1.62,4.06Z"></path></g><g><path class="cls-1" d="M170.92,0c-.09.82-.16,1.62-.19,2.4-.04.77-.05,1.36-.05,1.76,0,.42.01.83.04,1.22.02.39.05.71.07.97h-.81c-.14-1.39-.34-2.48-.6-3.29-.26-.81-.7-1.39-1.32-1.73-.62-.34-1.56-.51-2.8-.51h-2.92c-.8,0-1.4.06-1.81.19-.41.13-.69.4-.83.81-.14.41-.21,1.05-.21,1.92v17.47c0,.85.07,1.48.21,1.9.14.42.42.7.83.83.41.13,1.02.19,1.81.19h2.57c1.48,0,2.6-.2,3.36-.6.76-.4,1.31-1.05,1.66-1.96.34-.9.59-2.13.76-3.68h.81c-.07.63-.11,1.48-.11,2.54,0,.45.02,1.09.05,1.92.04.83.1,1.7.19,2.59-1.2-.05-2.55-.08-4.05-.09s-2.84-.02-4.02-.02h-2.8c-1.16,0-2.4,0-3.72.02s-2.55.04-3.7.09v-.7c.8-.05,1.4-.14,1.81-.28.41-.14.69-.42.83-.85.14-.42.21-1.06.21-1.9V3.73c0-.87-.07-1.51-.21-1.92-.14-.41-.42-.69-.83-.85-.41-.15-1.02-.24-1.81-.26v-.7c1.15.02,2.38.05,3.7.07,1.32.02,2.55.04,3.72.04h2.8c1.08,0,2.31,0,3.68-.02,1.37-.01,2.6-.04,3.68-.09ZM164.86,12.05v.7h-6.45v-.7h6.45ZM165.89,7.4c-.09,1.34-.14,2.36-.12,3.06.01.7.02,1.35.02,1.94s.01,1.23.04,1.94c.02.7.08,1.73.18,3.06h-.81c-.09-.75-.21-1.49-.33-2.2-.13-.72-.41-1.3-.85-1.76-.43-.46-1.17-.69-2.2-.69v-.7c1.03,0,1.76-.27,2.17-.81.41-.54.67-1.17.79-1.9.12-.73.22-1.37.32-1.94h.81Z"></path><path class="cls-1" d="M192.66,6.83v.74c-.96,0-1.65.18-2.06.53-.41.35-.62,1.02-.62,2.01v11.55c0,.99.21,1.66.62,2.01.41.35,1.1.53,2.06.53v.74c-.4-.02-.99-.05-1.76-.09-.78-.04-1.62-.05-2.54-.05s-1.84.02-2.77.05c-.93.04-1.65.06-2.17.09v-.74c1.06,0,1.88-.17,2.48-.51.6-.34.9-1.02.9-2.03v-11.55c0-.99-.18-1.66-.53-2.01-.35-.35-.95-.53-1.8-.53h-.32c-.59,0-.97.18-1.16.53-.19.35-.33,1.02-.42,2.01-.19,2.18-.42,4.27-.69,6.25-.27,1.98-.72,3.78-1.36,5.37-.35.87-.84,1.7-1.46,2.5-.62.8-1.46,1.2-2.52,1.2-.42,0-.82-.08-1.2-.23-.38-.15-.68-.39-.92-.7-.24-.32-.35-.71-.35-1.18,0-.59.18-1.04.53-1.37.35-.33.81-.49,1.37-.49.49,0,.91.14,1.25.42.34.28.51.7.51,1.27,0,.38-.11.71-.32,1-.21.29-.55.53-1.02.72.05.02.11.04.19.04h.16c.59,0,1.09-.19,1.5-.58.41-.39.76-.85,1.06-1.37s.51-.99.65-1.39c.38-.99.69-2.09.95-3.31.26-1.22.47-2.52.63-3.91.16-1.39.29-2.79.39-4.23.07-.99-.14-1.66-.62-2.01-.48-.35-1.2-.53-2.17-.53v-.74c.19.02.49.05.9.09.41.04.91.05,1.5.05h6.83c.82,0,1.64-.02,2.45-.05.81-.04,1.41-.06,1.81-.09Z"></path><path class="cls-1" d="M203.79,6.31c2.07,0,3.68.63,4.84,1.88,1.16,1.26,1.74,3.21,1.74,5.87h-12.44l-.04-.67h9.09c.05-1.15-.05-2.21-.28-3.19-.24-.97-.61-1.76-1.11-2.34-.5-.59-1.16-.88-1.96-.88-1.08,0-2.04.54-2.87,1.62-.83,1.08-1.33,2.8-1.5,5.14l.11.14c-.05.35-.08.74-.11,1.16s-.04.85-.04,1.27c0,1.6.26,2.97.78,4.12.52,1.15,1.19,2.03,2.03,2.62.83.6,1.7.9,2.59.9,1.06,0,2.03-.26,2.92-.77s1.64-1.43,2.25-2.75l.71.28c-.26.77-.68,1.53-1.27,2.25-.59.73-1.33,1.32-2.22,1.78s-1.93.69-3.1.69c-1.69,0-3.14-.39-4.35-1.16-1.21-.77-2.14-1.85-2.78-3.22-.65-1.37-.97-2.95-.97-4.74,0-2.07.33-3.85.99-5.34.66-1.49,1.58-2.64,2.78-3.45,1.2-.81,2.59-1.22,4.19-1.22Z"></path><path class="cls-1" d="M221.76,6.83v.74c-.85,0-1.44.18-1.8.53-.35.35-.53,1.02-.53,2.01v11.55c0,.99.18,1.66.53,2.01.35.35.95.53,1.8.53v.74c-.38-.02-.93-.05-1.67-.09-.74-.04-1.5-.05-2.27-.05s-1.57.02-2.4.05c-.82.04-1.43.06-1.83.09v-.74c.96,0,1.65-.18,2.06-.53.41-.35.62-1.02.62-2.01v-11.55c0-.99-.21-1.66-.62-2.01-.41-.35-1.1-.53-2.06-.53v-.74c.4.02,1.01.05,1.83.09.82.04,1.62.05,2.4.05s1.53-.02,2.27-.05c.74-.04,1.3-.06,1.67-.09ZM228.2,15.25v.7h-9.93v-.7h9.93ZM233.06,6.83v.74c-.96,0-1.65.18-2.06.53-.41.35-.62,1.02-.62,2.01v11.55c0,.99.21,1.66.62,2.01.41.35,1.1.53,2.06.53v.74c-.4-.02-1.01-.05-1.83-.09-.82-.04-1.62-.05-2.4-.05s-1.53.02-2.27.05c-.74.04-1.3.06-1.67.09v-.74c.85,0,1.44-.18,1.8-.53.35-.35.53-1.02.53-2.01v-11.55c0-.99-.18-1.66-.53-2.01-.35-.35-.95-.53-1.8-.53v-.74c.38.02.93.05,1.67.09.74.04,1.5.05,2.27.05s1.57-.02,2.4-.05c.82-.04,1.43-.06,1.83-.09Z"></path><path class="cls-1" d="M240.36,25.19c-1.53,0-2.64-.38-3.33-1.15-.69-.76-1.04-1.78-1.04-3.05,0-.99.24-1.8.72-2.45s1.1-1.17,1.85-1.59c.75-.41,1.54-.76,2.38-1.06.83-.29,1.63-.58,2.38-.86.75-.28,1.37-.6,1.85-.95.48-.35.72-.8.72-1.34v-2.18c0-.99-.15-1.74-.44-2.25-.29-.52-.69-.86-1.18-1.04s-1.05-.26-1.66-.26-1.21.08-1.88.25c-.67.16-1.2.51-1.6,1.02.45.09.83.33,1.16.7.33.38.49.86.49,1.44s-.19,1.05-.56,1.39-.86.51-1.44.51c-.68,0-1.18-.22-1.5-.65-.32-.43-.48-.92-.48-1.46,0-.61.15-1.1.46-1.48.3-.38.69-.73,1.16-1.06.54-.38,1.24-.7,2.1-.97s1.83-.41,2.91-.41c.96,0,1.78.11,2.47.33.68.22,1.24.55,1.69.97.61.56,1.01,1.25,1.2,2.06.19.81.28,1.78.28,2.91v9.79c0,.56.08.98.25,1.25s.45.4.85.4c.33,0,.62-.07.86-.21.25-.14.49-.32.72-.53l.39.6c-.49.38-.96.69-1.41.93-.45.25-1.04.37-1.8.37-1.22,0-2.03-.32-2.43-.95s-.6-1.36-.6-2.18c-.75,1.25-1.6,2.08-2.55,2.5-.95.42-1.94.63-2.98.63ZM241.91,23.78c.7,0,1.4-.21,2.08-.62.68-.41,1.32-1.1,1.9-2.06v-6.9c-.35.52-.9.93-1.64,1.23-.74.31-1.5.64-2.29,1-.79.36-1.46.86-2.03,1.48-.56.62-.85,1.51-.85,2.66,0,1.08.27,1.88.81,2.41.54.53,1.21.79,2.01.79Z"></path></g></svg> 