<?xml version="1.0" encoding="UTF-8"?> <svg xmlns="http://www.w3.org/2000/svg" id="_Слой_1" data-name="Слой_1" viewBox="0 0 405.17 59.04"><g><path d="M197.19,29.86v.88c-1.15,0-1.97.21-2.46.63-.49.42-.73,1.22-.73,2.39v13.78c.01,1.18.26,1.97.75,2.39.49.42,1.31.63,2.46.63v.88c-.48-.03-1.2-.06-2.18-.1-.98-.04-1.93-.06-2.86-.06-.92,0-1.83.02-2.71.06-.88.04-1.55.08-1.99.11v-.88c1.01,0,1.72-.21,2.14-.63.42-.42.63-1.22.63-2.39v-13.78c-.01-1.18-.22-1.97-.64-2.39-.42-.42-1.13-.63-2.14-.63h-3.74c-1.01,0-1.72.21-2.14.63s-.63,1.22-.63,2.39v13.78c.01,1.18.22,1.97.64,2.39.42.42,1.13.63,2.14.63v.88c-.45-.03-1.11-.06-1.99-.1-.88-.04-1.78-.06-2.71-.06-.92,0-1.88.02-2.86.06-.98.04-1.71.08-2.18.11v-.88c1.15,0,1.97-.21,2.46-.63.49-.42.73-1.22.73-2.39v-13.78c-.01-1.18-.26-1.97-.75-2.39-.49-.42-1.31-.63-2.46-.63v-.88c.48.03,1.2.06,2.18.1.98.04,1.93.06,2.86.06,1.34,0,2.54-.03,3.59-.09,1.05-.06,2.12-.09,3.21-.09,1.09,0,2.09.03,2.98.08.9.06,2.02.08,3.36.08.92,0,1.88-.02,2.86-.06.98-.04,1.71-.08,2.18-.11Z"></path><path d="M206.31,29.35l.02,25.79c0,1.2.36,2.01,1.07,2.42.71.4,1.7.61,2.96.61v.88c-.62-.03-1.47-.06-2.56-.1s-2.25-.06-3.49-.06c-.87,0-1.73.02-2.58.07-.85.04-1.51.08-1.95.11v-.88c1.01,0,1.72-.18,2.14-.55s.63-1.05.63-2.06v-21.17c-.02-1.26-.24-2.19-.69-2.79-.45-.6-1.29-.9-2.52-.9v-.88c.9.08,1.76.12,2.6.12.81,0,1.59-.05,2.33-.15.74-.1,1.42-.25,2.04-.44ZM213.03,29.22c2.21,0,4.07.89,5.57,2.66,1.5,1.78,2.25,4.36,2.25,7.75,0,2.02-.33,3.98-.98,5.88-.66,1.9-1.69,3.47-3.08,4.68s-3.25,1.83-5.54,1.83c-1.32,0-2.46-.31-3.42-.92-.97-.61-1.62-1.36-1.95-2.22l.42-.59c.39.78.96,1.44,1.7,1.97.74.53,1.67.8,2.79.8,1.57,0,2.79-.49,3.65-1.47.87-.98,1.48-2.29,1.82-3.93.35-1.64.52-3.45.52-5.44,0-2.24-.18-4.07-.55-5.5-.36-1.43-.91-2.49-1.64-3.19-.73-.7-1.63-1.05-2.69-1.05-1.37,0-2.62.57-3.74,1.7-1.12,1.13-1.83,2.85-2.14,5.15l-.5-.59c.31-2.38,1.15-4.23,2.54-5.55,1.39-1.32,3.04-1.98,4.98-1.98Z"></path><path d="M234.32,29.2c1.79,0,3.4.39,4.83,1.17,1.43.78,2.57,2.01,3.42,3.69.86,1.68,1.28,3.86,1.29,6.55,0,2.69-.42,4.87-1.28,6.53-.85,1.67-1.99,2.89-3.42,3.68-1.43.78-3.04,1.18-4.83,1.18-1.76,0-3.37-.39-4.81-1.17s-2.59-2.01-3.45-3.67c-.86-1.67-1.28-3.84-1.29-6.53,0-2.69.42-4.87,1.28-6.55.85-1.68,2-2.91,3.44-3.7,1.44-.78,3.04-1.18,4.81-1.18ZM234.32,30.04c-1.6,0-2.91.83-3.93,2.48-1.02,1.65-1.53,4.35-1.53,8.11,0,3.75.52,6.45,1.54,8.08,1.02,1.64,2.33,2.46,3.93,2.46,1.6,0,2.9-.82,3.92-2.46s1.53-4.33,1.53-8.09c0-3.75-.52-6.45-1.54-8.11-1.02-1.65-2.33-2.48-3.93-2.48Z"></path><path d="M257.5,29.81c3.08,0,5.22.47,6.41,1.4,1.19.94,1.79,2.16,1.79,3.67,0,1.46-.76,2.73-2.29,3.82-1.53,1.09-3.83,1.64-6.91,1.64l-.8-.34c1.68-.03,2.96-.22,3.84-.57s1.48-.88,1.8-1.58c.32-.7.48-1.58.48-2.65,0-1.32-.29-2.4-.88-3.25s-1.88-1.28-3.87-1.28c-1.12,0-1.91.22-2.37.65-.46.43-.69,1.23-.69,2.37v13.78c.01,1.18.24,1.97.7,2.39.46.42,1.29.63,2.5.63,1.57,0,2.78-.24,3.63-.72.85-.48,1.44-1.11,1.76-1.89s.48-1.64.48-2.56c0-1.79-.5-3.01-1.49-3.65-1-.64-2.26-.96-3.8-.96h-6.38s0-.71,0-.71h6.01s.38.08.38.08c3.36,0,5.74.45,7.14,1.36,1.4.91,2.1,2.19,2.1,3.84,0,1.12-.3,2.14-.9,3.07-.6.92-1.59,1.66-2.96,2.21-1.37.55-3.22.82-5.54.82-.87,0-1.76-.03-2.69-.08-.92-.05-1.9-.08-2.94-.08-.87,0-1.79.02-2.77.06-.98.04-1.71.08-2.18.11v-.88c1.15,0,1.97-.21,2.46-.63.49-.42.73-1.22.73-2.39v-13.78c-.01-1.18-.26-1.97-.75-2.39-.49-.42-1.31-.63-2.46-.63v-.88c.47.03,1.2.06,2.18.1.98.04,1.9.06,2.77.06,1.01,0,1.99-.03,2.94-.09.95-.06,1.81-.08,2.56-.09Z"></path><path d="M280.18,29.17c2.46,0,4.39.75,5.78,2.24,1.39,1.5,2.08,3.83,2.08,6.99h-14.83s-.04-.79-.04-.79h10.84c.05-1.38-.06-2.65-.34-3.81-.28-1.16-.72-2.09-1.33-2.79-.6-.7-1.38-1.05-2.33-1.05-1.29,0-2.43.65-3.42,1.93-.99,1.29-1.59,3.33-1.78,6.13l.13.17c-.06.42-.1.88-.12,1.39-.03.5-.04,1.01-.04,1.51,0,1.9.31,3.54.93,4.91.62,1.37,1.42,2.41,2.42,3.13,1,.71,2.02,1.07,3.09,1.07,1.26,0,2.42-.31,3.49-.93,1.06-.62,1.96-1.71,2.69-3.28l.84.33c-.31.92-.81,1.82-1.51,2.69-.7.87-1.58,1.58-2.64,2.12-1.06.55-2.3.82-3.7.82-2.02,0-3.75-.46-5.19-1.38s-2.55-2.2-3.32-3.84c-.77-1.64-1.16-3.52-1.16-5.65,0-2.46.39-4.59,1.17-6.36.78-1.78,1.89-3.15,3.31-4.12s3.09-1.45,5-1.45Z"></path><path d="M309.16,29.78v.88c-1.15,0-1.97.21-2.46.63s-.73,1.22-.73,2.39v13.78c.01,1.18.24,1.97.71,2.39.46.42,1.45.63,2.96.63-.11.98-.19,1.92-.23,2.81s-.06,1.58-.06,2.06c0,1.09.04,1.96.13,2.6h-.97c-.14-1.65-.33-2.97-.57-3.97-.24-.99-.65-1.71-1.22-2.14-.57-.43-1.44-.65-2.58-.65-.9,0-1.73.02-2.5.04-.77.03-1.71.06-2.81.09-1.11.03-2.6.04-4.47.04-1.15,0-2.01.2-2.58.61-.57.41-.98,1.09-1.22,2.06-.24.97-.43,2.27-.57,3.93h-.97c.08-.64.12-1.51.12-2.6,0-.48-.02-1.16-.06-2.06s-.12-1.83-.23-2.81h10.58c1.01,0,1.72-.22,2.14-.64.42-.42.63-1.22.63-2.39v-13.78c-.01-1.18-.22-1.97-.64-2.39-.42-.42-1.13-.63-2.14-.63h-.38c-1.01,0-1.69.21-2.06.63s-.6,1.22-.71,2.39c-.11,1.51-.26,3.1-.44,4.77-.18,1.67-.43,3.28-.73,4.85-.31,1.57-.73,2.98-1.26,4.24-.31.76-.71,1.48-1.22,2.16-.5.69-1.2,1.11-2.1,1.28l-.88-.5c.9,0,1.64-.33,2.23-.99.59-.66,1.02-1.38,1.3-2.16.7-1.82,1.21-3.93,1.55-6.34.33-2.41.6-4.84.79-7.31.08-1.18-.16-1.97-.74-2.39-.57-.42-1.44-.63-2.58-.63v-.88c.22.03.58.06,1.07.1s1.08.06,1.79.06,1.42-.03,2.16-.09c.74-.06,1.5-.08,2.29-.09.78,0,1.5.03,2.16.08.66.06,1.46.08,2.42.08.98,0,1.95-.02,2.92-.06.97-.04,1.69-.08,2.16-.11Z"></path><path d="M321.97,29.14c2.46,0,4.39.75,5.78,2.24,1.39,1.5,2.08,3.83,2.08,6.99h-14.83s-.04-.79-.04-.79h10.84c.05-1.38-.06-2.65-.34-3.81-.28-1.16-.72-2.09-1.33-2.79-.6-.7-1.38-1.05-2.33-1.05-1.29,0-2.43.65-3.42,1.93-.99,1.29-1.59,3.33-1.78,6.13l.13.17c-.06.42-.1.88-.12,1.39s-.04,1.01-.04,1.51c0,1.9.31,3.54.93,4.91.62,1.37,1.42,2.41,2.42,3.13,1,.71,2.02,1.07,3.09,1.07,1.26,0,2.42-.31,3.49-.93,1.06-.62,1.96-1.71,2.69-3.28l.84.34c-.31.92-.81,1.82-1.51,2.69-.7.87-1.58,1.58-2.64,2.12-1.06.55-2.3.82-3.7.82-2.02,0-3.75-.46-5.19-1.38s-2.55-2.2-3.32-3.84-1.16-3.52-1.16-5.65c0-2.46.39-4.58,1.17-6.36.78-1.78,1.89-3.15,3.31-4.12s3.09-1.45,5-1.45Z"></path><path d="M342.76,29.75v.88c-1.01,0-1.72.21-2.14.63-.42.42-.63,1.22-.63,2.39v13.78c.01,1.18.22,1.97.64,2.39.42.42,1.13.63,2.14.63v.88c-.45-.03-1.11-.06-1.99-.1-.88-.04-1.79-.06-2.71-.06-.92,0-1.88.02-2.86.06-.98.04-1.71.08-2.18.11v-.88c1.15,0,1.97-.21,2.46-.63.49-.42.73-1.22.73-2.39v-13.78c-.01-1.18-.26-1.97-.75-2.39-.49-.42-1.31-.63-2.46-.63v-.88c.47.03,1.2.06,2.18.1.98.04,1.93.06,2.86.06s1.83-.02,2.71-.06,1.55-.08,2-.11ZM350.46,39.79v.84h-11.84s0-.83,0-.83h11.84ZM356.24,29.75v.88c-1.15,0-1.97.21-2.46.63s-.73,1.22-.73,2.39v13.78c.01,1.18.26,1.97.75,2.39.49.42,1.31.63,2.46.63v.88c-.48-.03-1.2-.06-2.18-.1-.98-.04-1.93-.06-2.86-.06-.92,0-1.83.02-2.71.06-.88.04-1.55.08-2,.11v-.88c1.01,0,1.72-.21,2.14-.63.42-.42.63-1.22.63-2.39v-13.78c-.01-1.18-.22-1.97-.64-2.39-.42-.42-1.13-.63-2.14-.63v-.88c.45.03,1.11.06,1.99.1s1.79.06,2.71.06c.92,0,1.88-.02,2.86-.06.98-.04,1.71-.08,2.18-.11Z"></path><path d="M368.42,29.74v.88c-1.01,0-1.72.21-2.14.63-.42.42-.63,1.22-.63,2.39v13.78c.01,1.18.22,1.97.64,2.39.42.42,1.13.63,2.14.63v.88c-.45-.03-1.11-.06-1.99-.1-.88-.04-1.79-.06-2.71-.06-.92,0-1.88.02-2.86.06-.98.04-1.71.08-2.18.11v-.88c1.15,0,1.97-.21,2.46-.63.49-.42.73-1.22.73-2.39v-13.78c-.01-1.18-.26-1.97-.75-2.39-.49-.42-1.31-.63-2.46-.63v-.88c.47.03,1.2.06,2.18.1.98.04,1.93.06,2.86.06.92,0,1.83-.02,2.71-.06.88-.04,1.55-.08,2-.11ZM375.99,32.67l.67.46-11.54,15.97-.67-.5,11.54-15.93ZM382.54,29.73v.88c-1.15,0-1.97.21-2.46.63-.49.42-.73,1.22-.73,2.39v13.78c.01,1.18.26,1.97.75,2.39.49.42,1.31.63,2.46.63v.88c-.48-.03-1.2-.06-2.18-.1-.98-.04-1.93-.06-2.86-.06-.92,0-1.83.02-2.71.06-.88.04-1.55.08-2,.11v-.88c1.01,0,1.72-.21,2.14-.63.42-.42.63-1.22.63-2.39v-13.78c-.01-1.18-.22-1.97-.64-2.39-.42-.42-1.13-.63-2.14-.63v-.88c.45.03,1.11.06,1.99.1s1.79.06,2.71.06,1.88-.02,2.86-.06,1.71-.08,2.18-.11Z"></path><path d="M396.78,41.44v.46c-.7.03-1.43.06-2.18.11-.76.04-1.41.32-1.97.82-.7.62-1.14,1.51-1.32,2.69-.18,1.18-.5,2.34-.94,3.49-.31.84-.75,1.46-1.32,1.85s-1.57.59-3,.59c-.36,0-.74-.01-1.13-.04-.39-.03-.83-.06-1.3-.08v-.88c1.23-.11,2.02-.33,2.37-.65.35-.32.66-.89.94-1.7.45-1.23.81-2.19,1.09-2.86s.57-1.2.88-1.58c.31-.38.71-.71,1.22-.99.45-.25.99-.48,1.62-.67s1.37-.34,2.21-.44,1.79-.13,2.86-.11ZM405.17,29.71v.88c-1.15,0-1.97.21-2.46.63-.49.42-.73,1.22-.73,2.39v13.78c.01,1.18.22,1.97.64,2.39.42.42,1.13.63,2.14.63v.88c-.45-.03-1.11-.06-1.99-.1-.88-.04-1.79-.06-2.71-.06-.92,0-1.88.02-2.86.06-.98.04-1.71.08-2.18.11v-.88c1.15,0,1.97-.21,2.46-.63.49-.42.73-1.22.73-2.4v-13.78c-.01-1.12-.24-1.9-.68-2.35-.45-.45-1.23-.67-2.35-.67-1.26,0-2.22.23-2.88.69-.66.46-1.1,1.06-1.32,1.79-.22.73-.33,1.51-.33,2.35,0,1.82.44,3.19,1.31,4.12.87.92,2.39,1.41,4.58,1.47.7.03,1.4.04,2.1.04.7,0,1.4,0,2.1,0l.08.8c-1.48,0-2.75.02-3.8.04-1.05.03-1.86.04-2.42.04-2.24,0-3.92-.3-5.04-.9-1.12-.6-1.86-1.36-2.23-2.29-.37-.92-.55-1.85-.55-2.77,0-1.2.23-2.27.69-3.21.46-.94,1.26-1.68,2.41-2.23,1.15-.55,2.74-.82,4.79-.82.78,0,1.65.03,2.6.08.95.06,1.93.08,2.94.08.9,0,1.83-.02,2.79-.06.97-.04,1.69-.08,2.16-.11Z"></path></g><g><path d="M50.43,44.24c-3.94,4.47-9.09,6.71-15.44,6.71-.55,0-2.32-.27-5.33-.82-1.03-.39-2.58-.93-4.65-1.64-4.03,1.71-7.71,2.57-11.04,2.57-1.91,0-3.57-.29-4.96-.89-1.89-.8-2.84-2.03-2.84-3.69,0-1.5.83-2.65,2.49-3.45,1.3-.62,2.78-.92,4.44-.93,1.78,0,3.86.27,6.25.81.21.04,2.73.86,7.56,2.45,2.21-2.33,4.3-5.2,6.28-8.62.64-1.09,1.39-2.43,2.25-4,5.74-10.4,11.81-18.55,18.24-24.46-3.79-3.14-8.71-4.71-14.77-4.71-.84,0-1.71.04-2.6.1-.59.05-1.57.18-2.94.41,2.23,3.07,3.35,6.31,3.36,9.7,0,5.9-2.2,11.09-6.62,15.56-3.67,3.72-7.68,5.58-12.03,5.58-3.01,0-5.43-.87-7.26-2.63-1.84-1.75-2.75-4.13-2.76-7.14,0-5.47,2.43-10.35,7.3-14.63,4.14-3.65,9.14-6.23,15-7.73-2.33-1.27-4.91-1.91-7.76-1.91-4.58,0-8.71,1.46-12.4,4.38-3.42,2.69-6.02,6.27-7.82,10.74-.64,1.57-1.09,3.56-1.36,5.95-.25,2.1-.45,3.15-.61,3.15C.14,25.1,0,24.77,0,24.11c0-3.6,1.24-7.62,3.72-12.07,2.03-3.65,4.66-6.53,7.89-8.65C15.02,1.13,18.73,0,22.71,0c3.24,0,6.26.78,9.06,2.35,2.44-.39,4.33-.58,5.67-.58,7.04,0,12.72,1.92,17.03,5.76,4.19-3.26,7.12-4.89,8.78-4.89.23,0,.34.09.34.27-.75.75-2.02,1.74-3.79,2.96-1.78,1.22-3.04,2.21-3.79,2.96,3.28,3.99,4.93,8.47,4.93,13.46,0,4.28-1.09,8.44-3.27,12.48-1.18,2.19-3.6,5.35-7.24,9.47ZM23.63,47.82c-5.56-2.62-9.86-3.92-12.89-3.92-2.46,0-3.69.9-3.69,2.7,0,1.32.88,2.3,2.63,2.94,1.21.43,2.62.65,4.24.65,3.33,0,6.56-.79,9.71-2.37ZM32.12,4.3c-5.17,1.58-9.78,4.54-13.84,8.9-4.42,4.74-6.62,9.65-6.62,14.74,0,4.08,2.18,6.12,6.53,6.11,4.1,0,7.7-1.58,10.8-4.72,4.58-4.63,6.86-9.87,6.86-15.73,0-3.4-1.25-6.49-3.73-9.29ZM52.27,40.76c1.98-2.21,3.52-4.33,4.61-6.36,2.12-3.9,3.17-7.83,3.17-11.79,0-4.9-1.58-9.22-4.73-12.95-2.46,2.51-5.05,6.24-7.79,11.18-3.69,6.68-5.95,10.65-6.79,11.9-3.92,5.79-7.85,10.21-11.82,13.27,3.78,1.57,6.83,2.35,9.13,2.35,2.51,0,4.58-.41,6.22-1.24,2.16-1.09,3.97-2.28,5.43-3.56.2-.18.59-.59,1.16-1.23l1.4-1.57Z"></path><path d="M77.63,36.02l2.8-4.17,4.48-.28-7.41,12.24s-.79,1.26-2.29,3.66c-.32.68-.48,1.27-.48,1.74,0,.71.35,1.06,1.06,1.06,1.16,0,3.66-1.95,7.48-5.85,1.94-1.96,2.98-3.04,3.14-3.25.27,0,.41.09.41.27,0,.43-1.07,1.74-3.21,3.93-2.66,2.74-4.47,4.39-5.43,4.96-1.18.71-2.28,1.07-3.28,1.1-1.91.02-2.87-1.11-2.87-3.42,0-.18.02-.52.07-1.03.02-.25.11-.8.27-1.64-3.16,4.04-6.1,6.07-8.81,6.09-2.71.02-4.07-2.34-4.07-7.11,0-.98.16-2.06.48-3.25-.16.27-.41.63-.75,1.06-.27.25-.48.38-.62.38-.27,0-.41-.09-.41-.27,0-.43,1.09-1.76,3.28-3.98,4.58-4.67,8.8-7,12.68-7,2.48,0,3.73,1.08,3.73,3.23,0,.16-.02.4-.07.72-.02.16-.08.43-.17.79ZM62.63,47.96c0,1.46.57,2.19,1.71,2.19,1.66,0,3.85-1.49,6.56-4.46,4.03-4.41,6.04-8.18,6.04-11.3,0-1.48-.78-2.23-2.33-2.22-2.58,0-5.26,2.01-8.06,6.03-2.62,3.77-3.93,7.02-3.92,9.76Z"></path><path d="M87.11,51.05l9.63-13.63c1.32-1.87,1.98-3.16,1.98-3.87,0-.62-.33-.92-.99-.92-1.05,0-3.82,2.26-8.3,6.76l-.82.82c-1.53,1.53-2.35,2.3-2.46,2.3-.23,0-.34-.07-.34-.21,0-.25.51-.94,1.54-2.06l2.29-2.5c3.95-4.32,6.79-6.48,8.52-6.48,1.9,0,2.84,1.13,2.85,3.39,0,2.08-1.02,4.63-3.07,7.65,5.87-7.36,9.97-11.05,12.3-11.05,1.87,0,2.8,1,2.81,3.02,0,2.47-1.02,5.11-3.07,7.92,6.42-7.3,10.59-10.94,12.5-10.95,1.78,0,2.67,1.16,2.67,3.49,0,1.76-1.16,4.22-3.48,7.4-.14.21-.42.61-.85,1.2-2.16,3.01-3.24,5-3.24,5.96,0,.46.08.76.24.92.16.23.44.34.85.34.59,0,1.53-.52,2.83-1.55.75-.59,2.32-2.1,4.71-4.51.3-.3.89-.9,1.78-1.81l.17-.17c.59-.59.95-.9,1.06-.92.27,0,.41.11.41.34,0,.5-.99,1.66-2.97,3.49l-.41.38c-1.12,1.03-2.7,2.44-4.75,4.24-.98.87-1.95,1.31-2.9,1.34-1.12.02-1.97-.51-2.56-1.61-.48-.89-.72-1.94-.72-3.15,0-1.94,1.49-4.75,4.47-8.43.18-.23.55-.66,1.09-1.3,1.37-1.6,2.05-2.74,2.05-3.43-.09-.57-.37-.86-.82-.85-1.3,0-4.36,2.71-9.19,8.14-3.32,3.74-6.1,7.08-8.33,10.02l-4.92.28,9.01-13.19c1.43-2.1,2.15-3.56,2.15-4.38,0-.57-.33-.86-.99-.86-1.82,0-7.01,5.22-15.58,15.67l-2.05,2.5-5.09.28ZM124.31,26.97l-21.39,3.4-.92-1.2,22.15-2.54.17.34Z"></path><path d="M147.94,35.97l2.8-4.17,4.48-.28-7.41,12.24s-.79,1.26-2.29,3.66c-.32.68-.48,1.27-.48,1.74,0,.71.35,1.06,1.06,1.06,1.16,0,3.66-1.95,7.48-5.85,1.94-1.96,2.98-3.04,3.14-3.25.27,0,.41.09.41.27,0,.43-1.07,1.74-3.21,3.93-2.66,2.74-4.47,4.39-5.43,4.96-1.18.71-2.28,1.07-3.28,1.1-1.91.02-2.87-1.11-2.87-3.42,0-.18.02-.52.07-1.03.02-.25.11-.8.27-1.64-3.17,4.04-6.1,6.07-8.81,6.09-2.71.02-4.07-2.34-4.07-7.11,0-.98.16-2.06.48-3.25-.16.27-.41.63-.75,1.06-.27.25-.48.38-.62.38-.27,0-.41-.09-.41-.27,0-.43,1.09-1.76,3.28-3.98,4.58-4.67,8.8-7,12.68-7,2.48,0,3.73,1.08,3.73,3.23,0,.16-.02.4-.07.72-.02.16-.08.43-.17.79ZM132.94,47.91c0,1.46.57,2.19,1.71,2.19,1.66,0,3.85-1.49,6.56-4.46,4.03-4.41,6.04-8.18,6.04-11.3,0-1.48-.78-2.23-2.33-2.22-2.58,0-5.26,2.01-8.06,6.03-2.62,3.77-3.93,7.02-3.92,9.76Z"></path></g></svg> 