<?xml version="1.0" encoding="UTF-8"?> <svg xmlns="http://www.w3.org/2000/svg" id="_Слой_1" data-name="Слой_1" viewBox="0 0 354.6 102.17"><g><path d="M218.64,29.43v25.79c0,1.2.36,2.01,1.07,2.42.71.41,1.7.61,2.96.61v.88c-.62-.03-1.47-.06-2.56-.1-1.09-.04-2.25-.06-3.49-.06-.87,0-1.73.02-2.58.06-.85.04-1.5.08-1.95.1v-.88c1.01,0,1.72-.18,2.14-.55.42-.36.63-1.05.63-2.06v-21.17c0-1.26-.22-2.19-.67-2.79-.45-.6-1.29-.9-2.52-.9v-.88c.9.08,1.76.13,2.6.13s1.59-.05,2.33-.15c.74-.1,1.42-.25,2.04-.44ZM225.37,29.3c2.21,0,4.07.89,5.56,2.67,1.5,1.78,2.25,4.36,2.25,7.75,0,2.02-.33,3.98-.99,5.88-.66,1.9-1.69,3.46-3.09,4.68-1.4,1.22-3.25,1.83-5.54,1.83-1.32,0-2.46-.31-3.42-.92s-1.62-1.36-1.95-2.23l.42-.59c.39.78.96,1.44,1.7,1.97.74.53,1.67.8,2.79.8,1.57,0,2.79-.49,3.65-1.47.87-.98,1.48-2.29,1.83-3.93.35-1.64.52-3.45.52-5.44,0-2.24-.18-4.07-.55-5.5-.36-1.43-.91-2.49-1.64-3.19-.73-.7-1.62-1.05-2.69-1.05-1.37,0-2.62.57-3.74,1.7-1.12,1.13-1.83,2.85-2.14,5.15l-.5-.59c.31-2.38,1.16-4.23,2.54-5.54,1.39-1.32,3.04-1.97,4.98-1.97Z"></path><path d="M246.66,29.3c1.79,0,3.4.39,4.83,1.18,1.43.78,2.57,2.02,3.42,3.7.86,1.68,1.28,3.86,1.28,6.55s-.43,4.87-1.28,6.53c-.85,1.67-1.99,2.89-3.42,3.67s-3.04,1.18-4.83,1.18-3.37-.39-4.81-1.18c-1.44-.78-2.59-2.01-3.44-3.67s-1.28-3.84-1.28-6.53.43-4.87,1.28-6.55,2-2.91,3.44-3.7c1.44-.78,3.04-1.18,4.81-1.18ZM246.66,30.14c-1.6,0-2.91.83-3.93,2.48-1.02,1.65-1.53,4.35-1.53,8.11s.51,6.45,1.53,8.08c1.02,1.64,2.33,2.46,3.93,2.46s2.9-.82,3.93-2.46c1.02-1.64,1.53-4.33,1.53-8.08s-.51-6.45-1.53-8.11c-1.02-1.65-2.33-2.48-3.93-2.48Z"></path><path d="M276.27,29.93v.88c-1.15,0-1.97.21-2.46.63-.49.42-.73,1.22-.73,2.39v13.78c0,1.18.23,1.97.69,2.39.46.42,1.45.63,2.96.63-.11.98-.19,1.92-.23,2.81-.04.9-.06,1.58-.06,2.06,0,1.09.04,1.96.13,2.6h-.97c-.14-1.65-.33-2.98-.57-3.97-.24-.99-.64-1.71-1.22-2.14-.57-.43-1.44-.65-2.58-.65-.9,0-1.73.01-2.5.04-.77.03-1.71.06-2.81.08-1.11.03-2.6.04-4.47.04-1.15,0-2.01.2-2.58.61-.57.41-.98,1.09-1.22,2.06s-.43,2.27-.57,3.93h-.97c.08-.64.13-1.51.13-2.6,0-.48-.02-1.16-.06-2.06-.04-.9-.12-1.83-.23-2.81h10.58c1.01,0,1.72-.21,2.14-.63s.63-1.22.63-2.39v-13.78c0-1.18-.21-1.97-.63-2.39-.42-.42-1.13-.63-2.14-.63h-.38c-1.01,0-1.7.21-2.06.63-.36.42-.6,1.22-.71,2.39-.11,1.51-.26,3.1-.44,4.77-.18,1.67-.43,3.28-.74,4.85s-.73,2.98-1.26,4.24c-.31.76-.71,1.48-1.22,2.16-.5.69-1.21,1.11-2.1,1.28l-.88-.5c.89,0,1.64-.33,2.23-.99.59-.66,1.02-1.38,1.3-2.16.7-1.82,1.22-3.93,1.55-6.34.34-2.41.6-4.84.8-7.31.08-1.18-.16-1.97-.73-2.39-.57-.42-1.44-.63-2.58-.63v-.88c.22.03.58.06,1.07.11s1.08.06,1.79.06,1.42-.03,2.16-.08c.74-.06,1.51-.08,2.29-.08s1.51.03,2.16.08c.66.06,1.46.08,2.41.08s1.95-.02,2.92-.06c.96-.04,1.69-.08,2.16-.11Z"></path><path d="M288.62,29.93v.88c-1.01,0-1.72.21-2.14.63-.42.42-.63,1.22-.63,2.39v13.78c0,1.18.21,1.97.63,2.39s1.13.63,2.14.63v.88c-.45-.03-1.11-.06-1.99-.11-.88-.04-1.79-.06-2.71-.06s-1.88.02-2.86.06c-.98.04-1.71.08-2.19.11v-.88c1.15,0,1.97-.21,2.46-.63s.74-1.22.74-2.39v-13.78c0-1.18-.25-1.97-.74-2.39-.49-.42-1.31-.63-2.46-.63v-.88c.48.03,1.21.06,2.19.11.98.04,1.93.06,2.86.06s1.83-.02,2.71-.06c.88-.04,1.55-.08,1.99-.11ZM296.3,39.97v.84h-11.85v-.84h11.85ZM302.1,29.93v.88c-1.15,0-1.97.21-2.46.63-.49.42-.73,1.22-.73,2.39v13.78c0,1.18.24,1.97.73,2.39s1.31.63,2.46.63v.88c-.48-.03-1.2-.06-2.18-.11s-1.93-.06-2.86-.06-1.83.02-2.71.06c-.88.04-1.55.08-2,.11v-.88c1.01,0,1.72-.21,2.14-.63s.63-1.22.63-2.39v-13.78c0-1.18-.21-1.97-.63-2.39-.42-.42-1.13-.63-2.14-.63v-.88c.45.03,1.11.06,2,.11.88.04,1.79.06,2.71.06s1.88-.02,2.86-.06,1.71-.08,2.18-.11Z"></path><path d="M314.61,29.93v.88c-1.15,0-1.97.21-2.46.63-.49.42-.73,1.22-.73,2.39v13.78c0,1.12.13,1.9.4,2.35.27.45.73.67,1.41.67,1.51,0,2.67-.25,3.46-.76.8-.5,1.35-1.18,1.66-2.02.31-.84.46-1.74.46-2.69,0-1.93-.54-3.34-1.62-4.22s-2.86-1.32-5.35-1.32h-2.94l-.08-.71h5.5c3.05,0,5.22.57,6.51,1.7,1.29,1.13,1.93,2.57,1.93,4.3,0,1.04-.29,2.06-.86,3.07-.57,1.01-1.53,1.85-2.86,2.52s-3.11,1.01-5.35,1.01c-.59,0-1.26-.03-2.02-.08-.76-.06-1.51-.08-2.27-.08-.87,0-1.79.02-2.77.06s-1.71.08-2.18.11v-.88c1.15,0,1.97-.21,2.46-.63.49-.42.73-1.22.73-2.39v-13.78c0-1.18-.21-1.97-.63-2.39-.42-.42-1.13-.63-2.14-.63v-.88c.45.03,1.11.06,1.99.11.88.04,1.79.06,2.71.06s1.88-.02,2.86-.06c.98-.04,1.71-.08,2.18-.11ZM333.6,29.93v.88c-1.01,0-1.72.21-2.14.63-.42.42-.63,1.22-.63,2.39v13.78c0,1.18.25,1.97.74,2.39.49.42,1.31.63,2.46.63v.88c-.48-.03-1.22-.06-2.23-.11s-1.97-.06-2.9-.06c-.84,0-1.71.02-2.6.06s-1.57.08-2.02.11v-.88c1.01,0,1.72-.21,2.14-.63s.63-1.22.63-2.39v-13.78c0-1.18-.21-1.97-.63-2.39-.42-.42-1.13-.63-2.14-.63v-.88c.45.03,1.12.06,2.02.11s1.76.06,2.6.06c.92,0,1.83-.02,2.71-.06.88-.04,1.55-.08,2-.11Z"></path><path d="M346.57,29.3c2.46,0,4.39.75,5.78,2.25,1.39,1.5,2.08,3.83,2.08,6.99h-14.83l-.04-.8h10.84c.06-1.37-.06-2.64-.34-3.8-.28-1.16-.72-2.09-1.32-2.79-.6-.7-1.38-1.05-2.33-1.05-1.29,0-2.43.64-3.42,1.93-.99,1.29-1.59,3.33-1.79,6.13l.12.17c-.06.42-.1.88-.12,1.39-.03.5-.04,1.01-.04,1.51,0,1.9.31,3.54.92,4.91.62,1.37,1.42,2.42,2.42,3.13s2.02,1.07,3.09,1.07c1.26,0,2.42-.31,3.49-.92,1.06-.62,1.96-1.71,2.69-3.28l.84.34c-.31.92-.81,1.82-1.51,2.69-.7.87-1.58,1.57-2.64,2.12-1.06.55-2.3.82-3.7.82-2.02,0-3.74-.46-5.19-1.39-1.44-.92-2.55-2.21-3.32-3.84-.77-1.64-1.16-3.52-1.16-5.65,0-2.46.39-4.58,1.18-6.36.78-1.78,1.89-3.15,3.32-4.12s3.09-1.45,5-1.45Z"></path></g><g><path d="M50.42,44.26c-3.94,4.47-9.09,6.7-15.45,6.7-.55,0-2.32-.27-5.33-.82-1.03-.39-2.58-.93-4.65-1.64-4.03,1.71-7.71,2.56-11.04,2.56-1.91,0-3.57-.3-4.96-.89-1.89-.8-2.84-2.03-2.84-3.69,0-1.5.83-2.65,2.49-3.45,1.3-.62,2.78-.92,4.44-.92,1.78,0,3.86.27,6.25.81.21.04,2.72.86,7.56,2.45,2.21-2.33,4.31-5.2,6.29-8.62.64-1.09,1.39-2.43,2.26-4,5.74-10.39,11.83-18.54,18.25-24.45-3.78-3.15-8.71-4.72-14.77-4.72-.84,0-1.71.03-2.6.1-.59.05-1.57.18-2.94.41,2.23,3.08,3.35,6.31,3.35,9.71,0,5.9-2.21,11.09-6.63,15.55-3.67,3.71-7.68,5.57-12.03,5.57-3.01,0-5.43-.88-7.26-2.63-1.83-1.75-2.75-4.14-2.75-7.14,0-5.47,2.44-10.34,7.31-14.63,4.15-3.65,9.15-6.22,15-7.72-2.32-1.28-4.91-1.91-7.76-1.91-4.58,0-8.72,1.46-12.41,4.38-3.42,2.69-6.03,6.27-7.83,10.73-.64,1.57-1.09,3.55-1.37,5.95-.25,2.1-.46,3.14-.62,3.14-.27,0-.41-.33-.41-.99,0-3.6,1.24-7.62,3.73-12.07,2.03-3.65,4.66-6.53,7.9-8.65,3.42-2.26,7.12-3.38,11.11-3.38,3.24,0,6.25.79,9.06,2.36,2.44-.39,4.33-.58,5.67-.58,7.04,0,12.71,1.93,17.02,5.78,4.19-3.26,7.12-4.89,8.78-4.89.23,0,.34.09.34.27-.75.75-2.02,1.74-3.79,2.96-1.78,1.22-3.04,2.2-3.79,2.96,3.28,3.99,4.92,8.48,4.92,13.47,0,4.28-1.09,8.44-3.28,12.48-1.19,2.19-3.6,5.34-7.25,9.47ZM23.62,47.82c-5.56-2.62-9.86-3.93-12.89-3.93-2.46,0-3.69.9-3.69,2.7,0,1.32.88,2.3,2.63,2.94,1.21.43,2.62.65,4.24.65,3.33,0,6.56-.79,9.71-2.36ZM32.13,4.31c-5.17,1.57-9.79,4.53-13.84,8.89-4.42,4.74-6.63,9.65-6.63,14.73,0,4.08,2.18,6.12,6.53,6.12,4.1,0,7.7-1.57,10.8-4.72,4.58-4.63,6.87-9.87,6.87-15.72,0-3.4-1.24-6.49-3.73-9.3ZM52.26,40.78c1.98-2.21,3.52-4.33,4.61-6.36,2.12-3.9,3.18-7.83,3.18-11.79,0-4.9-1.57-9.22-4.72-12.95-2.46,2.51-5.06,6.23-7.79,11.18-3.69,6.68-5.96,10.64-6.8,11.89-3.92,5.79-7.86,10.21-11.83,13.26,3.78,1.57,6.82,2.36,9.13,2.36,2.51,0,4.58-.41,6.22-1.23,2.16-1.09,3.98-2.28,5.43-3.55.21-.18.59-.59,1.16-1.23l1.4-1.57Z"></path><path d="M74.55,44.57c.11.05.21.07.27.07.3.09.56.14.79.14,1.8,0,3.66-1.05,5.57-3.14l.79-1.09c.11-.11.3-.19.55-.24.18,0,.27.15.27.44v.17l-.03.07c0,.07-.01.1-.03.1l-.75.96c-1.91,2.44-4.19,3.66-6.84,3.66h-.44c-.21-.02-.35-.03-.44-.03-.27-.05-.48-.07-.62-.07-3.46,3.9-6.6,5.86-9.4,5.88-3.17.02-4.75-2.47-4.75-7.49,0-1.09.19-2.2.58-3.32-.75.96-1.26,1.44-1.54,1.44h-.14c-.14-.05-.21-.14-.21-.27.05-.16.21-.45.48-.86.36-.43,1.16-1.3,2.39-2.61,4.44-4.71,8.58-7.06,12.41-7.06,3.24,0,4.85,1.66,4.85,4.97,0,2.22-1.25,4.98-3.76,8.29ZM62.62,47.74c0,1.62.73,2.43,2.19,2.43.98,0,2.3-.58,3.96-1.75.96-.66,1.86-1.44,2.7-2.33,3.35-3.49,5.02-6.83,5.02-10,0-2.28-.9-3.42-2.7-3.42-2.37,0-4.87,1.94-7.49,5.82-2.46,3.63-3.69,6.71-3.69,9.25Z"></path><path d="M73.15,68.91l-4.52.48,20.32-33.92-5.56,6.12c-.79.65-1.3.97-1.53.97-.27,0-.41-.07-.41-.21,0-.11,1.64-1.99,4.92-5.64,2.87-3.19,5.89-7.26,9.08-12.21l4.11-6.35,4.18-.37-14.95,24.57c6.63-7.36,10.91-11.04,12.82-11.04,1.76,0,2.63,1.16,2.63,3.49,0,1.69-1.16,4.15-3.49,7.39-.14.21-.42.61-.85,1.2-2.17,2.99-3.25,4.98-3.25,5.96,0,.84.36,1.27,1.09,1.27.59,0,1.54-.51,2.84-1.54.25-.21,1.82-1.71,4.72-4.51.59-.57,1.2-1.17,1.81-1.81.71-.73,1.13-1.09,1.26-1.09.23,0,.34.11.34.34,0,.37-1.11,1.65-3.32,3.86-3.71,3.71-6.29,5.58-7.72,5.61-1.12.02-1.97-.52-2.56-1.64-.48-.89-.72-1.94-.72-3.15,0-2.01,1.49-4.82,4.48-8.42.23-.25.59-.68,1.09-1.3,1.37-1.62,2.05-2.76,2.05-3.42-.09-.57-.37-.86-.82-.86-1.98,0-5.42,2.99-10.32,8.97-3.67,4.47-6.5,8.4-8.51,11.78l-9.22,15.48Z"></path><path d="M124.17,44.57c.11.05.21.07.27.07.3.09.56.14.79.14,1.8,0,3.66-1.05,5.57-3.14l.79-1.09c.11-.11.3-.19.55-.24.18,0,.27.15.27.44v.17l-.03.07c0,.07-.01.1-.03.1l-.75.96c-1.91,2.44-4.19,3.66-6.84,3.66h-.44c-.21-.02-.35-.03-.44-.03-.27-.05-.48-.07-.62-.07-3.46,3.9-6.6,5.86-9.4,5.88-3.17.02-4.75-2.47-4.75-7.49,0-1.09.19-2.2.58-3.32-.75.96-1.26,1.44-1.54,1.44h-.14c-.14-.05-.21-.14-.21-.27.05-.16.21-.45.48-.86.36-.43,1.16-1.3,2.39-2.61,4.44-4.71,8.58-7.06,12.41-7.06,3.24,0,4.85,1.66,4.85,4.97,0,2.22-1.25,4.98-3.76,8.29ZM112.25,47.74c0,1.62.73,2.43,2.19,2.43.98,0,2.3-.58,3.96-1.75.96-.66,1.86-1.44,2.7-2.33,3.35-3.49,5.02-6.83,5.02-10,0-2.28-.9-3.42-2.7-3.42-2.37,0-4.87,1.94-7.49,5.82-2.46,3.63-3.69,6.71-3.69,9.25Z"></path><path d="M151.83,41.43l-3.49,4.03c-3.44,3.99-6.29,5.98-8.54,5.98-.96,0-1.7-.45-2.22-1.34-.46-.75-.68-1.63-.68-2.64,0-2.03,1.22-4.8,3.66-8.32.16-.23.26-.39.31-.48,1.8-2.81,2.7-4.51,2.7-5.1s-.34-.89-1.03-.89c-1.28,0-3.95,2.05-8.03,6.14-2.19,2.2-3.37,3.29-3.55,3.29-.23,0-.34-.09-.34-.27,0-.48.57-1.25,1.71-2.3l2.43-2.26c1.3-1.21,3.06-2.82,5.3-4.83,1.12-.75,2.18-1.13,3.18-1.13,2.03,0,3.04,1.23,3.04,3.7,0,.8-.19,1.69-.58,2.67-.32.8-1.09,2.11-2.32,3.94l-.99,1.47c-2.17,3.22-3.25,5.26-3.25,6.13,0,.91.36,1.37,1.09,1.37,1.44,0,3.78-1.67,7.04-5.02.98-1,1.97-2.16,2.97-3.49.82-1.07,1.36-1.57,1.61-1.5.11.05.17.14.17.27s-.06.33-.17.58Z"></path><path d="M167.14,45.38c-1.19,1.99-1.78,3.31-1.78,3.97,0,.84.35,1.27,1.06,1.27,1.07,0,3.55-2.03,7.45-6.08l3.18-3.32c.27,0,.41.09.41.27,0,.39-.93,1.54-2.8,3.45-4.24,4.35-7.13,6.53-8.68,6.53-2.21,0-3.32-1.54-3.32-4.61,0-.3.1-.96.31-1.98-3.69,4.4-6.6,6.6-8.72,6.6-2.46,0-3.69-1.48-3.69-4.44,0-2.12,1.7-5.67,5.09-10.66l.51-.75-3.25,3.76c-1.82,2.12-2.79,3.18-2.91,3.18-.21,0-.31-.07-.31-.21,0-.69,2.81-4.26,8.44-10.73l4.68-.31-6.84,12.16c-1.82,3.24-2.73,5.21-2.73,5.89,0,.84.36,1.27,1.09,1.27,3.9,0,9.41-6.33,16.54-19l4.61-.31-8.37,14.07Z"></path><path d="M178.59,41.02c-.71,1.03-1.19,1.54-1.44,1.54-.21,0-.31-.09-.31-.27,0-.37.89-1.54,2.67-3.53,4.44-4.96,8.68-7.44,12.71-7.44,1.05,0,1.95.3,2.72.89.76.59,1.15,1.4,1.15,2.43,0,2.44-1.81,4.67-5.43,6.68-2.55,1.42-5.41,2.5-8.58,3.25-.23,1.28-.34,2.21-.34,2.81,0,2.17.93,3.25,2.8,3.25,2.42,0,5.29-1.71,8.61-5.13.62-.64,1.4-1.55,2.36-2.73.82-1.03,1.32-1.54,1.5-1.54.27,0,.41.11.41.34,0,.41-1.19,1.81-3.55,4.2-3.74,3.78-7.01,5.69-9.81,5.71-1.89.02-3.38-.79-4.48-2.43-.96-1.41-1.44-3.11-1.44-5.09,0-1.12.15-2.1.44-2.94ZM182.45,43.48c2.45-.55,4.85-1.69,7.19-3.43,2.77-2.06,4.16-4.19,4.16-6.41,0-.96-.41-1.44-1.23-1.44-1.95,0-4.03,1.44-6.24,4.32-1.73,2.26-3.02,4.58-3.88,6.96Z"></path></g><g><path d="M85.19,80v.88c-1.01,0-1.72.21-2.14.63-.42.42-.63,1.22-.63,2.39v13.78c0,1.18.21,1.97.63,2.39.42.42,1.13.63,2.14.63v.88c-.45-.03-1.11-.06-2-.11-.88-.04-1.78-.06-2.71-.06s-1.88.02-2.86.06c-.98.04-1.71.08-2.18.11v-.88c1.15,0,1.97-.21,2.46-.63.49-.42.74-1.22.74-2.39v-13.78c0-1.18-.25-1.97-.74-2.39-.49-.42-1.31-.63-2.46-.63v-.88c.48.03,1.2.06,2.18.1.98.04,1.93.06,2.86.06s1.83-.02,2.71-.06c.88-.04,1.55-.08,2-.1ZM92.75,82.93l.67.46-11.55,15.96-.67-.5,11.55-15.92ZM99.3,80v.88c-1.15,0-1.97.21-2.46.63-.49.42-.74,1.22-.74,2.39v13.78c0,1.18.25,1.97.74,2.39.49.42,1.31.63,2.46.63v.88c-.48-.03-1.2-.06-2.18-.11-.98-.04-1.93-.06-2.86-.06s-1.83.02-2.71.06c-.88.04-1.55.08-2,.11v-.88c1.01,0,1.72-.21,2.14-.63.42-.42.63-1.22.63-2.39v-13.78c0-1.18-.21-1.97-.63-2.39-.42-.42-1.13-.63-2.14-.63v-.88c.45.03,1.11.06,2,.1.88.04,1.78.06,2.71.06s1.88-.02,2.86-.06c.98-.04,1.71-.08,2.18-.1Z"></path><path d="M132.18,68.57l.63.17c-.28.92-.6,1.76-.97,2.52-.36.76-.83,1.36-1.39,1.81-.45.36-1.02.67-1.72.92-.7.25-1.58.41-2.65.46-.45.03-1.09.07-1.93.13-.84.06-1.62.15-2.35.29-1.15.2-2.13.54-2.94,1.03-.81.49-1.49,1.2-2.04,2.12s-.99,2.13-1.32,3.61c-.34,1.48-.62,3.3-.84,5.46l2.1,2.56-2.39-1.18c.42-2.13,1.08-3.79,2-4.98.91-1.19,1.98-2.04,3.21-2.54,1.23-.5,2.53-.76,3.91-.76,2.21,0,3.98.5,5.29,1.49,1.32,1,2.28,2.28,2.88,3.86.6,1.58.9,3.28.9,5.1,0,2.3-.42,4.31-1.26,6.05s-2.01,3.08-3.51,4.03c-1.5.95-3.24,1.43-5.23,1.43-1.76,0-3.32-.44-4.66-1.32-1.34-.88-2.39-2.33-3.15-4.35-.76-2.02-1.13-4.69-1.13-8.02,0-.48.03-1.29.08-2.46.06-1.16.19-2.47.4-3.93.21-1.46.55-2.88,1.01-4.26.46-1.39,1.11-2.54,1.95-3.46.56-.62,1.26-1.14,2.1-1.58.84-.43,1.82-.75,2.94-.95.87-.14,1.78-.24,2.73-.29.95-.06,1.69-.1,2.23-.13,1.57-.11,2.7-.39,3.4-.84.7-.45,1.27-1.12,1.72-2.02ZM123.32,81.09c-.95,0-1.86.3-2.73.9-.87.6-1.58,1.62-2.14,3.04-.56,1.43-.84,3.42-.84,5.96s.27,4.5.82,6.03c.55,1.53,1.25,2.63,2.12,3.3.87.67,1.78,1.01,2.73,1.01,1.09,0,1.98-.36,2.67-1.07s1.21-1.62,1.58-2.73c.36-1.11.62-2.28.76-3.53.14-1.25.21-2.4.21-3.46,0-3.42-.48-5.84-1.45-7.29-.97-1.44-2.21-2.16-3.72-2.16Z"></path><path d="M154.06,80v.88c-1.15,0-1.97.21-2.46.63s-.73,1.22-.73,2.39v13.78c0,1.18.24,1.97.73,2.39s1.31.63,2.46.63v.88c-.48-.03-1.18-.06-2.1-.11s-1.93-.06-3.02-.06-2.19.02-3.3.06c-1.11.04-1.97.08-2.58.11v-.88c1.26,0,2.25-.2,2.96-.61.71-.41,1.07-1.21,1.07-2.42v-13.78c0-1.18-.21-1.97-.63-2.39s-1.13-.63-2.14-.63h-.38c-.7,0-1.16.21-1.39.63-.22.42-.39,1.22-.5,2.39-.22,2.6-.5,5.09-.82,7.46-.32,2.37-.86,4.5-1.62,6.41-.42,1.04-1,2.03-1.74,2.98-.74.95-1.74,1.43-3,1.43-.5,0-.98-.09-1.43-.27-.45-.18-.81-.46-1.09-.84-.28-.38-.42-.85-.42-1.41,0-.7.21-1.25.63-1.64.42-.39.97-.59,1.64-.59.59,0,1.08.17,1.49.5s.61.84.61,1.51c0,.45-.13.85-.38,1.2-.25.35-.66.64-1.22.86.06.03.13.04.23.04h.19c.7,0,1.29-.23,1.79-.69.49-.46.91-1.01,1.26-1.64.35-.63.61-1.18.78-1.66.45-1.18.83-2.49,1.13-3.95.31-1.46.56-3.01.76-4.66.2-1.65.35-3.33.46-5.04.08-1.18-.16-1.97-.74-2.39s-1.43-.63-2.58-.63v-.88c.22.03.58.06,1.07.1.49.04,1.08.06,1.79.06h8.15c.98,0,1.95-.02,2.92-.06.97-.04,1.69-.08,2.16-.1Z"></path><path d="M166.24,80v.88c-1.01,0-1.72.21-2.14.63s-.63,1.22-.63,2.39v13.78c0,1.18.21,1.97.63,2.39s1.13.63,2.14.63v.88c-.45-.03-1.11-.06-2-.11s-1.79-.06-2.71-.06-1.88.02-2.86.06c-.98.04-1.71.08-2.18.11v-.88c1.15,0,1.97-.21,2.46-.63s.74-1.22.74-2.39v-13.78c0-1.18-.25-1.97-.74-2.39s-1.31-.63-2.46-.63v-.88c.48.03,1.2.06,2.18.1.98.04,1.93.06,2.86.06s1.83-.02,2.71-.06,1.55-.08,2-.1ZM173.8,82.93l.67.46-11.55,15.96-.67-.5,11.55-15.92ZM180.36,80v.88c-1.15,0-1.97.21-2.46.63-.49.42-.74,1.22-.74,2.39v13.78c0,1.18.25,1.97.74,2.39.49.42,1.31.63,2.46.63v.88c-.48-.03-1.2-.06-2.18-.11-.98-.04-1.93-.06-2.86-.06s-1.83.02-2.71.06-1.55.08-2,.11v-.88c1.01,0,1.72-.21,2.14-.63s.63-1.22.63-2.39v-13.78c0-1.18-.21-1.97-.63-2.39s-1.13-.63-2.14-.63v-.88c.45.03,1.11.06,2,.1s1.79.06,2.71.06,1.88-.02,2.86-.06c.98-.04,1.71-.08,2.18-.1Z"></path><path d="M192.12,79.37c1.9,0,3.41.46,4.52,1.36,1.11.91,1.66,2.09,1.66,3.55,0,1.15-.34,2.11-1.01,2.88-.67.77-1.5,1.39-2.48,1.85-.98.46-1.95.8-2.9,1.03,2.32.08,4.17.59,5.54,1.51,1.37.92,2.06,2.28,2.06,4.07,0,1.34-.42,2.51-1.26,3.49-.84.98-1.95,1.74-3.34,2.27-1.38.53-2.88.8-4.47.8-1.2,0-2.25-.15-3.13-.44-.88-.29-1.64-.65-2.29-1.07-.56-.39-1.03-.83-1.41-1.3-.38-.48-.57-1.02-.57-1.64,0-.67.21-1.22.63-1.64s.95-.63,1.6-.63,1.19.2,1.64.59c.45.39.67.95.67,1.68,0,.59-.16,1.06-.48,1.43-.32.36-.75.6-1.28.71.25.42.85.79,1.8,1.11.95.32,1.9.48,2.86.48,1.71,0,2.99-.52,3.86-1.55.87-1.04,1.3-2.35,1.3-3.95s-.39-2.88-1.16-3.93c-.77-1.05-1.86-1.59-3.25-1.62-.28.14-.57.27-.86.38-.29.11-.6.17-.9.17-.62,0-.93-.24-.93-.71,0-.45.32-.67.97-.67.28,0,.57.03.88.08.31.06.6.11.88.17,1.29-.39,2.16-1.05,2.6-1.97.45-.92.67-1.95.67-3.07,0-1.37-.27-2.49-.8-3.34-.53-.85-1.36-1.28-2.48-1.28-1.01,0-1.97.3-2.9.9-.92.6-1.67,1.45-2.25,2.54-.57,1.09-.85,2.37-.82,3.82h-.97c.06-1.34.07-2.51.04-3.51-.03-.99-.06-1.84-.11-2.54-.04-.7-.09-1.26-.15-1.68h.97c.17,1.23.48,1.85.92,1.85.17,0,.37-.07.61-.21.24-.14.51-.31.82-.5.5-.34,1.11-.67,1.83-.99.71-.32,1.66-.48,2.83-.48Z"></path><path d="M212.15,80v.88c-1.01,0-1.72.21-2.14.63s-.63,1.22-.63,2.39v13.78c0,1.18.21,1.97.63,2.39s1.13.63,2.14.63v.88c-.45-.03-1.12-.06-2.02-.11-.9-.04-1.81-.06-2.73-.06s-1.87.02-2.84.06c-.96.04-1.69.08-2.16.11v-.88c1.15,0,1.97-.21,2.46-.63s.73-1.22.73-2.39v-13.78c0-1.18-.24-1.97-.73-2.39s-1.31-.63-2.46-.63v-.88c.47.03,1.2.06,2.16.1.97.04,1.91.06,2.84.06s1.83-.02,2.73-.06c.89-.04,1.57-.08,2.02-.1ZM220.89,79.37c.98,0,1.67.24,2.08.71s.61,1.01.61,1.6-.2,1.14-.59,1.58c-.39.43-.94.65-1.64.65-.5,0-.94-.11-1.3-.34-.37-.22-.64-.54-.84-.94-.2-.41-.29-.88-.29-1.41v-.29c-.31.14-.58.39-.82.76-.24.36-.48.85-.74,1.47-.25.62-.54,1.37-.88,2.27-.28.76-.6,1.48-.97,2.18-.36.7-.87,1.29-1.51,1.76-.64.48-1.53.78-2.65.92l.38-.29c1.68-.06,3.16.13,4.43.55,1.28.42,2.28,1.2,3,2.35.48.73.88,1.62,1.2,2.69.32,1.06.66,2,1.03,2.81.31.7.66,1.24,1.07,1.62s1.04.61,1.91.69v.88c-.45.08-.9.15-1.34.21-.45.06-.87.08-1.26.08-1.26,0-2.18-.3-2.77-.9-.59-.6-1.04-1.42-1.34-2.46-.14-.48-.31-1.06-.5-1.74-.2-.69-.44-1.39-.71-2.1s-.62-1.34-1.01-1.87c-.62-.87-1.41-1.43-2.39-1.7-.98-.27-2.25-.37-3.82-.31v-.71c1.54-.08,2.73-.34,3.57-.78.84-.43,1.48-1.04,1.93-1.83.45-.78.85-1.71,1.22-2.77.28-.78.59-1.59.92-2.42s.82-1.52,1.45-2.08c.63-.56,1.49-.84,2.58-.84Z"></path><path d="M236.17,80v.88c-1.01,0-1.72.21-2.14.63s-.63,1.22-.63,2.39v13.78c0,1.18.21,1.97.63,2.39s1.13.63,2.14.63v.88c-.45-.03-1.11-.06-2-.11-.88-.04-1.79-.06-2.71-.06s-1.88.02-2.86.06-1.71.08-2.18.11v-.88c1.15,0,1.97-.21,2.46-.63s.73-1.22.73-2.39v-13.78c0-1.18-.24-1.97-.73-2.39s-1.31-.63-2.46-.63v-.88c.47.03,1.2.06,2.18.1s1.93.06,2.86.06,1.83-.02,2.71-.06c.88-.04,1.55-.08,2-.1ZM243.73,82.93l.67.46-11.55,15.96-.67-.5,11.55-15.92ZM250.29,80v.88c-1.15,0-1.97.21-2.46.63s-.73,1.22-.73,2.39v13.78c0,1.18.24,1.97.73,2.39s1.31.63,2.46.63v.88c-.48-.03-1.2-.06-2.18-.11s-1.93-.06-2.86-.06-1.83.02-2.71.06c-.88.04-1.55.08-2,.11v-.88c1.01,0,1.72-.21,2.14-.63s.63-1.22.63-2.39v-13.78c0-1.18-.21-1.97-.63-2.39s-1.13-.63-2.14-.63v-.88c.45.03,1.11.06,2,.1.88.04,1.79.06,2.71.06s1.88-.02,2.86-.06,1.71-.08,2.18-.1Z"></path><path d="M262.93,79.37c2.46,0,4.39.75,5.78,2.25,1.39,1.5,2.08,3.83,2.08,6.99h-14.83l-.04-.8h10.84c.06-1.37-.06-2.64-.34-3.8s-.72-2.09-1.32-2.79c-.6-.7-1.38-1.05-2.33-1.05-1.29,0-2.43.64-3.42,1.93-.99,1.29-1.59,3.33-1.79,6.13l.12.17c-.06.42-.1.88-.12,1.39-.03.5-.04,1.01-.04,1.51,0,1.9.31,3.54.92,4.91.62,1.37,1.42,2.42,2.42,3.13s2.02,1.07,3.09,1.07c1.26,0,2.42-.31,3.49-.92,1.06-.62,1.96-1.71,2.69-3.28l.84.34c-.31.92-.81,1.82-1.51,2.69-.7.87-1.58,1.58-2.64,2.12-1.06.55-2.3.82-3.7.82-2.02,0-3.74-.46-5.19-1.39-1.44-.92-2.55-2.21-3.32-3.84-.77-1.64-1.16-3.52-1.16-5.65,0-2.46.39-4.58,1.18-6.36.78-1.78,1.89-3.15,3.32-4.12s3.09-1.45,5-1.45Z"></path><path d="M278.26,96.79c.73,0,1.36.27,1.89.8.53.53.8,1.16.8,1.89s-.27,1.36-.8,1.89c-.53.53-1.16.8-1.89.8s-1.36-.27-1.89-.8c-.53-.53-.8-1.16-.8-1.89s.27-1.36.8-1.89c.53-.53,1.16-.8,1.89-.8ZM278.26,68.74c.53,0,.99.18,1.37.55.38.36.57.97.57,1.81,0,1.09-.08,2.45-.23,4.07s-.34,3.42-.54,5.4c-.21,1.97-.39,4.05-.55,6.22-.15,2.17-.23,4.36-.23,6.57h-.76c0-2.21-.08-4.4-.23-6.57-.15-2.17-.34-4.24-.54-6.22-.21-1.97-.39-3.77-.55-5.4s-.23-2.98-.23-4.07c0-.84.19-1.44.57-1.81.38-.36.83-.55,1.37-.55Z"></path></g></svg> 